{"glyphs":{"0":{"ha":1165,"x_min":0,"x_max":0,"o":"m 736 913 b 193 376 466 913 193 744 b 588 -15 193 107 363 -15 b 1126 517 863 -15 1126 141 b 736 913 1126 792 949 913 z m 294 384 b 726 826 294 672 499 826 b 1026 509 907 826 1026 723 b 595 72 1026 214 831 72 b 294 384 421 72 294 169 z "},"1":{"ha":567,"x_min":0,"x_max":0,"o":"m 444 808 l 305 0 l 399 0 l 554 896 l 471 896 l 229 846 l 234 778 z "},"2":{"ha":960,"x_min":0,"x_max":0,"o":"m 642 503 l 422 429 b 136 132 252 372 164 297 l 113 0 l 874 0 l 889 85 l 227 85 l 236 136 b 446 346 252 228 299 297 l 667 416 b 972 708 914 494 972 553 b 684 910 972 850 865 910 b 299 833 519 910 379 867 l 326 745 b 677 824 417 786 551 824 b 872 703 808 824 872 785 b 642 503 872 605 839 567 z "},"3":{"ha":951,"x_min":0,"x_max":0,"o":"m 451 -16 b 902 284 699 -16 902 58 b 749 483 902 388 848 465 b 933 708 857 511 933 594 b 639 911 933 867 792 911 b 256 835 463 911 335 867 l 281 751 b 628 824 369 787 503 824 b 833 695 784 824 833 767 b 526 505 833 613 764 505 l 356 505 l 342 422 l 515 422 b 801 274 722 422 801 401 b 459 71 801 143 651 71 b 115 146 310 71 205 104 l 80 59 b 451 -16 169 13 280 -16 z "},"4":{"ha":963,"x_min":0,"x_max":0,"o":"m 701 188 l 668 0 l 758 0 l 791 188 l 960 188 l 974 269 l 805 269 l 913 896 l 773 896 l 121 288 l 103 188 z m 213 269 l 810 826 l 715 269 z "},"5":{"ha":967,"x_min":0,"x_max":0,"o":"m 160 140 l 128 56 b 483 -16 220 9 333 -16 b 906 322 724 -16 906 82 b 618 568 906 497 787 568 b 342 520 479 568 394 539 l 413 813 l 919 813 l 933 896 l 348 896 l 244 471 l 297 419 b 605 481 380 449 472 481 b 806 311 742 481 806 422 b 493 71 806 143 668 71 b 160 140 349 71 257 99 z "},"6":{"ha":1035,"x_min":0,"x_max":0,"o":"m 730 911 b 190 356 405 911 190 683 b 558 -16 190 94 345 -16 b 999 341 888 -16 999 190 b 676 597 999 539 826 597 b 292 430 497 597 358 516 b 722 824 319 658 478 824 b 985 774 836 824 907 804 l 1025 851 b 730 911 968 876 877 911 z m 290 327 b 663 510 374 435 504 510 b 899 333 793 510 899 462 b 566 71 899 130 696 71 b 290 327 428 71 303 133 z "},"7":{"ha":803,"x_min":0,"x_max":0,"o":"m 167 34 l 240 -17 l 885 792 l 903 896 l 194 896 l 180 813 l 796 813 z "},"8":{"ha":1046,"x_min":0,"x_max":0,"o":"m 447 448 b 163 197 275 417 163 330 b 545 -16 163 38 342 -16 b 994 242 769 -16 994 56 b 798 453 994 349 919 428 b 1023 689 907 481 1023 545 b 682 911 1023 825 881 911 b 281 645 455 911 281 811 b 447 448 281 534 353 481 z m 264 210 b 613 403 264 327 426 403 b 897 240 816 403 897 345 b 554 67 897 118 714 67 b 264 210 381 67 264 110 z m 382 651 b 676 828 382 765 502 828 b 923 678 827 828 923 772 b 619 485 923 553 761 485 b 382 651 490 485 382 550 z "},"9":{"ha":1051,"x_min":0,"x_max":0,"o":"m 475 -16 b 1015 546 828 -16 1015 216 b 640 911 1015 799 862 911 b 206 556 426 911 206 799 b 506 313 206 366 357 313 b 915 474 703 313 848 401 b 482 71 892 221 726 71 b 188 129 353 71 258 96 l 155 43 b 475 -16 216 13 307 -16 z m 306 564 b 638 824 306 725 445 824 b 916 575 791 824 902 756 b 524 399 815 462 685 399 b 306 564 383 399 306 440 z "}," ":{"ha":375,"x_min":0,"x_max":0,"o":""},"A":{"ha":1129,"x_min":0,"x_max":0,"o":"m 58 38 l 143 -19 l 294 206 l 909 206 l 981 -18 l 1079 13 l 785 896 l 642 896 z m 352 293 l 709 831 l 881 293 z "},"À":{"ha":1129,"x_min":0,"x_max":0,"o":"m 58 38 l 143 -19 l 294 206 l 909 206 l 981 -18 l 1079 13 l 785 896 l 642 896 z m 352 293 l 709 831 l 881 293 z m 486 1135 l 719 996 l 770 1065 l 545 1215 z "},"Á":{"ha":1129,"x_min":0,"x_max":0,"o":"m 58 38 l 143 -19 l 294 206 l 909 206 l 981 -18 l 1079 13 l 785 896 l 642 896 z m 352 293 l 709 831 l 881 293 z m 678 1065 l 712 992 l 1021 1134 l 982 1217 z "},"Â":{"ha":1129,"x_min":0,"x_max":0,"o":"m 58 38 l 143 -19 l 294 206 l 909 206 l 981 -18 l 1079 13 l 785 896 l 642 896 z m 352 293 l 709 831 l 881 293 z m 498 1049 l 555 988 l 756 1150 l 900 988 l 963 1039 l 805 1208 l 711 1208 z "},"Ã":{"ha":1129,"x_min":0,"x_max":0,"o":"m 58 38 l 143 -19 l 294 206 l 909 206 l 981 -18 l 1079 13 l 785 896 l 642 896 z m 352 293 l 709 831 l 881 293 z m 484 1053 l 545 1017 b 644 1089 569 1052 601 1089 b 723 1049 673 1089 697 1069 b 824 1010 750 1030 781 1010 b 1000 1135 890 1010 950 1046 l 935 1168 b 834 1088 903 1113 873 1088 b 764 1121 809 1088 788 1103 b 651 1168 735 1143 701 1168 b 484 1053 589 1168 526 1133 z "},"Ä":{"ha":1129,"x_min":0,"x_max":0,"o":"m 58 38 l 143 -19 l 294 206 l 909 206 l 981 -18 l 1079 13 l 785 896 l 642 896 z m 352 293 l 709 831 l 881 293 z m 555 1018 l 663 1018 l 682 1127 l 574 1127 z m 790 1018 l 899 1018 l 917 1127 l 809 1127 z "},"Å":{"ha":1129,"x_min":0,"x_max":0,"o":"m 58 38 l 143 -19 l 294 206 l 909 206 l 981 -18 l 1079 13 l 785 896 l 642 896 z m 352 293 l 709 831 l 881 293 z m 591 1102 b 733 980 591 1031 638 980 b 909 1128 830 980 909 1044 b 767 1252 908 1206 856 1252 b 591 1102 665 1252 591 1183 z m 662 1109 b 763 1194 662 1152 702 1194 b 838 1124 817 1194 838 1161 b 737 1039 838 1079 796 1039 b 662 1109 683 1039 662 1073 z "},"Ā":{"ha":1129,"x_min":0,"x_max":0,"o":"m 58 38 l 143 -19 l 294 206 l 909 206 l 981 -18 l 1079 13 l 785 896 l 642 896 z m 352 293 l 709 831 l 881 293 z m 526 1031 l 935 1031 l 949 1110 l 540 1110 z "},"Ă":{"ha":1129,"x_min":0,"x_max":0,"o":"m 58 38 l 143 -19 l 294 206 l 909 206 l 981 -18 l 1079 13 l 785 896 l 642 896 z m 352 293 l 709 831 l 881 293 z m 547 1164 b 724 997 547 1068 595 997 b 969 1196 872 997 942 1092 l 887 1204 b 731 1072 849 1097 796 1072 b 626 1201 667 1072 626 1097 l 626 1203 l 549 1196 b 547 1164 547 1185 547 1174 z "},"Ą":{"ha":1129,"x_min":0,"x_max":0,"o":"m 915 -290 b 1051 -266 967 -290 1010 -280 l 1033 -201 b 924 -222 1000 -213 974 -222 b 854 -156 878 -222 854 -203 b 1079 13 854 -101 903 -44 l 785 896 l 642 896 l 58 38 l 143 -19 l 294 206 l 909 206 l 962 41 b 772 -167 824 -21 772 -86 b 915 -290 772 -243 826 -290 z m 352 293 l 709 831 l 881 293 z "},"Ǻ":{"ha":1129,"x_min":0,"x_max":0,"o":"m 58 38 l 143 -19 l 294 206 l 909 206 l 981 -18 l 1079 13 l 785 896 l 642 896 z m 352 293 l 709 831 l 881 293 z m 577 1058 b 719 935 577 986 624 935 b 895 1084 816 935 895 1000 b 753 1208 894 1162 842 1208 b 577 1058 651 1208 577 1138 z m 648 1065 b 749 1150 648 1108 688 1150 b 824 1080 803 1150 824 1117 b 723 994 824 1035 782 994 b 648 1065 669 994 648 1028 z m 649 1294 l 683 1221 l 992 1363 l 953 1446 z "},"B":{"ha":1140,"x_min":0,"x_max":0,"o":"m 796 896 l 322 896 l 167 0 l 648 0 b 1072 272 928 0 1072 94 b 924 478 1072 393 1015 455 b 1106 703 1037 512 1106 597 b 796 896 1106 849 992 896 z m 279 90 l 337 424 l 751 424 b 969 271 919 424 969 368 b 672 90 969 164 856 90 z m 352 510 l 403 806 l 786 806 b 1001 690 931 806 1001 769 b 742 510 1001 601 917 510 z "},"C":{"ha":1120,"x_min":0,"x_max":0,"o":"m 627 -16 b 1033 83 783 -16 908 25 l 999 167 b 632 77 896 119 784 77 b 297 374 424 77 297 183 b 762 817 297 664 497 817 b 1083 749 872 817 979 792 l 1126 838 b 767 910 1020 881 924 910 b 192 374 495 910 192 758 b 627 -16 192 120 365 -16 z "},"Ç":{"ha":1120,"x_min":0,"x_max":0,"o":"m 417 -204 l 394 -270 b 522 -290 421 -280 466 -290 b 724 -123 652 -290 724 -229 b 688 -14 724 -82 713 -45 b 1033 83 816 -5 924 33 l 999 167 b 632 77 896 119 784 77 b 297 374 424 77 297 183 b 762 817 297 664 497 817 b 1083 749 872 817 979 792 l 1126 838 b 767 910 1020 881 924 910 b 192 374 495 910 192 758 b 573 -14 192 138 341 3 b 644 -123 629 -46 644 -87 b 533 -222 644 -181 606 -222 b 417 -204 483 -222 443 -212 z "},"Ć":{"ha":1120,"x_min":0,"x_max":0,"o":"m 721 1065 l 754 992 l 1063 1134 l 1024 1217 z m 192 374 b 627 -16 192 120 365 -16 b 1033 83 783 -16 908 25 l 999 167 b 632 77 896 119 784 77 b 297 374 424 77 297 183 b 762 817 297 664 497 817 b 1083 749 872 817 979 792 l 1126 838 b 767 910 1020 881 924 910 b 192 374 495 910 192 758 z "},"Ĉ":{"ha":1120,"x_min":0,"x_max":0,"o":"m 552 1049 l 609 988 l 810 1150 l 954 988 l 1017 1039 l 859 1208 l 765 1208 z m 192 374 b 627 -16 192 120 365 -16 b 1033 83 783 -16 908 25 l 999 167 b 632 77 896 119 784 77 b 297 374 424 77 297 183 b 762 817 297 664 497 817 b 1083 749 872 817 979 792 l 1126 838 b 767 910 1020 881 924 910 b 192 374 495 910 192 758 z "},"Ċ":{"ha":1120,"x_min":0,"x_max":0,"o":"m 627 -16 b 1033 83 783 -16 908 25 l 999 167 b 632 77 896 119 784 77 b 297 374 424 77 297 183 b 762 817 297 664 497 817 b 1083 749 872 817 979 792 l 1126 838 b 767 910 1020 881 924 910 b 192 374 495 910 192 758 b 627 -16 192 120 365 -16 z m 732 1018 l 840 1018 l 859 1127 l 751 1127 z "},"Č":{"ha":1120,"x_min":0,"x_max":0,"o":"m 576 1182 l 733 1018 l 826 1018 l 1031 1182 l 976 1237 l 782 1076 l 641 1235 z m 192 374 b 627 -16 192 120 365 -16 b 1033 83 783 -16 908 25 l 999 167 b 632 77 896 119 784 77 b 297 374 424 77 297 183 b 762 817 297 664 497 817 b 1083 749 872 817 979 792 l 1126 838 b 767 910 1020 881 924 910 b 192 374 495 910 192 758 z "},"D":{"ha":1179,"x_min":0,"x_max":0,"o":"m 167 0 l 542 0 b 1140 532 945 0 1140 170 b 701 896 1140 768 1010 896 l 322 896 z m 279 90 l 403 806 l 695 806 b 1036 517 949 806 1036 695 b 557 90 1036 299 946 90 z "},"Ď":{"ha":1179,"x_min":0,"x_max":0,"o":"m 526 1182 l 683 1018 l 776 1018 l 981 1182 l 926 1237 l 732 1076 l 591 1235 z m 167 0 l 542 0 b 1140 532 945 0 1140 170 b 701 896 1140 768 1010 896 l 322 896 z m 279 90 l 403 806 l 695 806 b 1036 517 949 806 1036 695 b 557 90 1036 299 946 90 z "},"E":{"ha":1026,"x_min":0,"x_max":0,"o":"m 322 896 l 167 0 l 943 0 l 958 90 l 279 90 l 335 410 l 898 410 l 913 497 l 350 497 l 403 806 l 1069 806 l 1084 896 z "},"È":{"ha":1026,"x_min":0,"x_max":0,"o":"m 322 896 l 167 0 l 943 0 l 958 90 l 279 90 l 335 410 l 898 410 l 913 497 l 350 497 l 403 806 l 1069 806 l 1084 896 z m 549 1135 l 781 996 l 833 1065 l 608 1215 z "},"É":{"ha":1026,"x_min":0,"x_max":0,"o":"m 636 1065 l 669 992 l 978 1134 l 940 1217 z m 167 0 l 943 0 l 958 90 l 279 90 l 335 410 l 898 410 l 913 497 l 350 497 l 403 806 l 1069 806 l 1084 896 l 322 896 z "},"Ê":{"ha":1026,"x_min":0,"x_max":0,"o":"m 498 1049 l 555 988 l 756 1150 l 900 988 l 963 1039 l 805 1208 l 711 1208 z m 167 0 l 943 0 l 958 90 l 279 90 l 335 410 l 898 410 l 913 497 l 350 497 l 403 806 l 1069 806 l 1084 896 l 322 896 z "},"Ë":{"ha":1026,"x_min":0,"x_max":0,"o":"m 322 896 l 167 0 l 943 0 l 958 90 l 279 90 l 335 410 l 898 410 l 913 497 l 350 497 l 403 806 l 1069 806 l 1084 896 z m 567 1018 l 675 1018 l 694 1127 l 585 1127 z m 802 1018 l 910 1018 l 929 1127 l 821 1127 z "},"Ē":{"ha":1026,"x_min":0,"x_max":0,"o":"m 322 896 l 167 0 l 943 0 l 958 90 l 279 90 l 335 410 l 898 410 l 913 497 l 350 497 l 403 806 l 1069 806 l 1084 896 z m 536 1031 l 946 1031 l 960 1110 l 550 1110 z "},"Ĕ":{"ha":1026,"x_min":0,"x_max":0,"o":"m 322 896 l 167 0 l 943 0 l 958 90 l 279 90 l 335 410 l 898 410 l 913 497 l 350 497 l 403 806 l 1069 806 l 1084 896 z m 553 1164 b 730 997 553 1068 601 997 b 974 1196 878 997 948 1092 l 892 1204 b 737 1072 854 1097 801 1072 b 631 1201 673 1072 631 1097 l 631 1203 l 554 1196 b 553 1164 553 1185 553 1174 z "},"Ė":{"ha":1026,"x_min":0,"x_max":0,"o":"m 322 896 l 167 0 l 943 0 l 958 90 l 279 90 l 335 410 l 898 410 l 913 497 l 350 497 l 403 806 l 1069 806 l 1084 896 z m 680 1018 l 788 1018 l 807 1127 l 699 1127 z "},"Ę":{"ha":1026,"x_min":0,"x_max":0,"o":"m 797 -290 b 931 -266 847 -290 890 -280 l 913 -201 b 805 -222 880 -213 855 -222 b 735 -156 760 -222 735 -203 b 943 0 735 -106 783 -51 l 958 90 l 279 90 l 335 410 l 898 410 l 913 497 l 350 497 l 403 806 l 1069 806 l 1084 896 l 322 896 l 167 0 l 801 0 b 653 -167 693 -45 653 -104 b 797 -290 653 -243 707 -290 z "},"Ě":{"ha":1026,"x_min":0,"x_max":0,"o":"m 528 1182 l 685 1018 l 778 1018 l 983 1182 l 928 1237 l 734 1076 l 593 1235 z m 167 0 l 943 0 l 958 90 l 279 90 l 335 410 l 898 410 l 913 497 l 350 497 l 403 806 l 1069 806 l 1084 896 l 322 896 z "},"F":{"ha":958,"x_min":0,"x_max":0,"o":"m 322 896 l 167 0 l 264 0 l 329 377 l 855 377 l 869 465 l 344 465 l 403 806 l 1049 806 l 1064 896 z "},"G":{"ha":1181,"x_min":0,"x_max":0,"o":"m 626 -16 b 1040 74 797 -16 906 23 l 1105 449 l 672 449 l 658 365 l 997 365 l 958 140 b 633 77 847 97 772 77 b 294 371 427 77 294 165 b 772 817 294 664 508 817 b 1104 756 874 817 981 799 l 1141 846 b 785 910 1033 884 932 910 b 190 360 483 910 190 742 b 626 -16 190 108 368 -16 z "},"Ĝ":{"ha":1181,"x_min":0,"x_max":0,"o":"m 548 1049 l 605 988 l 806 1150 l 950 988 l 1013 1039 l 855 1208 l 761 1208 z m 190 360 b 626 -16 190 108 368 -16 b 1040 74 797 -16 906 23 l 1105 449 l 672 449 l 658 365 l 997 365 l 958 140 b 633 77 847 97 772 77 b 294 371 427 77 294 165 b 772 817 294 664 508 817 b 1104 756 874 817 981 799 l 1141 846 b 785 910 1033 884 932 910 b 190 360 483 910 190 742 z "},"Ğ":{"ha":1181,"x_min":0,"x_max":0,"o":"m 626 -16 b 1040 74 797 -16 906 23 l 1105 449 l 672 449 l 658 365 l 997 365 l 958 140 b 633 77 847 97 772 77 b 294 371 427 77 294 165 b 772 817 294 664 508 817 b 1104 756 874 817 981 799 l 1141 846 b 785 910 1033 884 932 910 b 190 360 483 910 190 742 b 626 -16 190 108 368 -16 z m 610 1164 b 787 997 610 1068 658 997 b 1031 1196 935 997 1005 1092 l 949 1204 b 794 1072 911 1097 858 1072 b 688 1201 730 1072 688 1097 l 688 1203 l 611 1196 b 610 1164 610 1185 610 1174 z "},"Ġ":{"ha":1181,"x_min":0,"x_max":0,"o":"m 626 -16 b 1040 74 797 -16 906 23 l 1105 449 l 672 449 l 658 365 l 997 365 l 958 140 b 633 77 847 97 772 77 b 294 371 427 77 294 165 b 772 817 294 664 508 817 b 1104 756 874 817 981 799 l 1141 846 b 785 910 1033 884 932 910 b 190 360 483 910 190 742 b 626 -16 190 108 368 -16 z m 744 1018 l 852 1018 l 871 1127 l 763 1127 z "},"Ģ":{"ha":1181,"x_min":0,"x_max":0,"o":"m 586 -376 l 672 -219 l 696 -79 l 591 -79 l 567 -215 l 601 -215 l 541 -356 z m 190 360 b 626 -16 190 108 368 -16 b 1040 74 797 -16 906 23 l 1105 449 l 672 449 l 658 365 l 997 365 l 958 140 b 633 77 847 97 772 77 b 294 371 427 77 294 165 b 772 817 294 664 508 817 b 1104 756 874 817 981 799 l 1141 846 b 785 910 1033 884 932 910 b 190 360 483 910 190 742 z "},"H":{"ha":1258,"x_min":0,"x_max":0,"o":"m 322 896 l 167 0 l 264 0 l 332 394 l 1063 394 l 994 0 l 1092 0 l 1247 896 l 1149 896 l 1078 483 l 347 483 l 419 896 z "},"Ĥ":{"ha":1258,"x_min":0,"x_max":0,"o":"m 585 1049 l 642 988 l 843 1150 l 987 988 l 1050 1039 l 892 1208 l 798 1208 z m 167 0 l 264 0 l 332 394 l 1063 394 l 994 0 l 1092 0 l 1247 896 l 1149 896 l 1078 483 l 347 483 l 419 896 l 322 896 z "},"I":{"ha":431,"x_min":0,"x_max":0,"o":"m 322 896 l 167 0 l 264 0 l 419 896 z "},"Ì":{"ha":431,"x_min":0,"x_max":0,"o":"m 322 896 l 167 0 l 264 0 l 419 896 z m 153 1135 l 386 996 l 438 1065 l 213 1215 z "},"Í":{"ha":431,"x_min":0,"x_max":0,"o":"m 322 896 l 167 0 l 264 0 l 419 896 z m 343 1065 l 376 992 l 685 1134 l 647 1217 z "},"Î":{"ha":431,"x_min":0,"x_max":0,"o":"m 322 896 l 167 0 l 264 0 l 419 896 z m 140 1049 l 197 988 l 399 1150 l 542 988 l 606 1039 l 447 1208 l 353 1208 z "},"Ï":{"ha":431,"x_min":0,"x_max":0,"o":"m 322 896 l 167 0 l 264 0 l 419 896 z m 210 1018 l 319 1018 l 338 1127 l 229 1127 z m 446 1018 l 554 1018 l 573 1127 l 465 1127 z "},"Ĩ":{"ha":431,"x_min":0,"x_max":0,"o":"m 322 896 l 167 0 l 264 0 l 419 896 z m 149 1053 l 210 1017 b 309 1089 235 1052 266 1089 b 388 1049 338 1089 362 1069 b 490 1010 415 1030 446 1010 b 665 1135 556 1010 615 1046 l 601 1168 b 499 1088 568 1113 538 1088 b 429 1121 474 1088 453 1103 b 317 1168 400 1143 367 1168 b 149 1053 254 1168 192 1133 z "},"Ī":{"ha":431,"x_min":0,"x_max":0,"o":"m 322 896 l 167 0 l 264 0 l 419 896 z m 183 1031 l 593 1031 l 607 1110 l 197 1110 z "},"Ĭ":{"ha":431,"x_min":0,"x_max":0,"o":"m 322 896 l 167 0 l 264 0 l 419 896 z m 217 1164 b 394 997 217 1068 265 997 b 638 1196 542 997 612 1092 l 556 1204 b 401 1072 518 1097 465 1072 b 295 1201 337 1072 295 1097 l 295 1203 l 218 1196 b 217 1164 217 1185 217 1174 z "},"Į":{"ha":431,"x_min":0,"x_max":0,"o":"m 188 -290 b 324 -266 240 -290 283 -280 l 306 -201 b 197 -222 273 -213 247 -222 b 127 -156 153 -222 127 -203 b 264 0 127 -105 158 -53 l 419 896 l 322 896 l 169 12 b 45 -167 76 -40 45 -99 b 188 -290 45 -243 99 -290 z "},"İ":{"ha":431,"x_min":0,"x_max":0,"o":"m 322 896 l 167 0 l 264 0 l 419 896 z m 337 1018 l 445 1018 l 464 1127 l 356 1127 z "},"J":{"ha":889,"x_min":0,"x_max":0,"o":"m 134 150 l 93 63 b 393 -16 163 18 267 -16 b 796 306 556 -16 749 37 l 898 896 l 801 896 l 699 309 b 397 77 669 135 538 77 b 134 150 279 77 193 115 z "},"Ĵ":{"ha":889,"x_min":0,"x_max":0,"o":"m 622 1049 l 678 988 l 880 1150 l 1024 988 l 1087 1039 l 928 1208 l 835 1208 z m 93 63 b 393 -16 163 18 267 -16 b 796 306 556 -16 749 37 l 898 896 l 801 896 l 699 309 b 397 77 669 135 538 77 b 134 150 279 77 193 115 z "},"K":{"ha":1153,"x_min":0,"x_max":0,"o":"m 726 474 l 1030 -19 l 1110 30 l 799 531 l 1223 852 l 1169 919 l 310 268 l 419 896 l 322 896 l 167 0 l 264 0 l 290 149 z "},"Ķ":{"ha":1153,"x_min":0,"x_max":0,"o":"m 563 -376 l 648 -219 l 672 -79 l 567 -79 l 544 -215 l 578 -215 l 517 -356 z m 167 0 l 264 0 l 290 149 l 726 474 l 1030 -19 l 1110 30 l 799 531 l 1223 852 l 1169 919 l 310 268 l 419 896 l 322 896 z "},"L":{"ha":934,"x_min":0,"x_max":0,"o":"m 322 896 l 167 0 l 905 0 l 920 90 l 279 90 l 419 896 z "},"Ĺ":{"ha":934,"x_min":0,"x_max":0,"o":"m 345 1065 l 378 992 l 688 1134 l 649 1217 z m 167 0 l 905 0 l 920 90 l 279 90 l 419 896 l 322 896 z "},"Ļ":{"ha":934,"x_min":0,"x_max":0,"o":"m 475 -376 l 560 -219 l 585 -79 l 480 -79 l 456 -215 l 490 -215 l 430 -356 z m 167 0 l 905 0 l 920 90 l 279 90 l 419 896 l 322 896 z "},"Ľ":{"ha":934,"x_min":0,"x_max":0,"o":"m 728 908 l 647 633 l 727 615 l 821 886 z m 167 0 l 905 0 l 920 90 l 279 90 l 419 896 l 322 896 z "},"M":{"ha":1441,"x_min":0,"x_max":0,"o":"m 322 896 l 167 0 l 261 0 l 401 812 l 685 85 l 809 85 l 1315 790 l 1180 0 l 1274 0 l 1429 896 l 1283 896 l 755 153 l 474 896 z "},"N":{"ha":1197,"x_min":0,"x_max":0,"o":"m 322 896 l 167 0 l 263 0 l 397 776 l 919 0 l 1031 0 l 1185 896 l 1090 896 l 953 108 l 428 896 z "},"Ñ":{"ha":1197,"x_min":0,"x_max":0,"o":"m 322 896 l 167 0 l 263 0 l 397 776 l 919 0 l 1031 0 l 1185 896 l 1090 896 l 953 108 l 428 896 z m 544 1053 l 606 1017 b 704 1089 630 1052 661 1089 b 783 1049 733 1089 757 1069 b 885 1010 810 1030 841 1010 b 1060 1135 951 1010 1010 1046 l 996 1168 b 894 1088 963 1113 933 1088 b 824 1121 869 1088 848 1103 b 712 1168 795 1143 762 1168 b 544 1053 649 1168 587 1133 z "},"Ń":{"ha":1197,"x_min":0,"x_max":0,"o":"m 725 1065 l 758 992 l 1067 1134 l 1028 1217 z m 167 0 l 263 0 l 397 776 l 919 0 l 1031 0 l 1185 896 l 1090 896 l 953 108 l 428 896 l 322 896 z "},"Ņ":{"ha":1197,"x_min":0,"x_max":0,"o":"m 546 -376 l 631 -219 l 656 -79 l 551 -79 l 527 -215 l 561 -215 l 501 -356 z m 167 0 l 263 0 l 397 776 l 919 0 l 1031 0 l 1185 896 l 1090 896 l 953 108 l 428 896 l 322 896 z "},"Ň":{"ha":1197,"x_min":0,"x_max":0,"o":"m 588 1182 l 744 1018 l 838 1018 l 1042 1182 l 987 1237 l 793 1076 l 652 1235 z m 167 0 l 263 0 l 397 776 l 919 0 l 1031 0 l 1185 896 l 1090 896 l 953 108 l 428 896 l 322 896 z "},"O":{"ha":1289,"x_min":0,"x_max":0,"o":"m 790 910 b 192 374 424 910 192 701 b 650 -16 192 135 370 -16 b 1249 506 1017 -16 1249 188 b 790 910 1249 751 1067 910 z m 297 382 b 783 817 297 647 475 817 b 1145 500 1013 817 1145 693 b 660 77 1145 242 968 77 b 297 382 431 77 297 197 z "},"Ò":{"ha":1289,"x_min":0,"x_max":0,"o":"m 790 910 b 192 374 424 910 192 701 b 650 -16 192 135 370 -16 b 1249 506 1017 -16 1249 188 b 790 910 1249 751 1067 910 z m 297 382 b 783 817 297 647 475 817 b 1145 500 1013 817 1145 693 b 660 77 1145 242 968 77 b 297 382 431 77 297 197 z m 629 1135 l 862 996 l 913 1065 l 688 1215 z "},"Ó":{"ha":1289,"x_min":0,"x_max":0,"o":"m 748 1065 l 781 992 l 1090 1134 l 1051 1217 z m 192 374 b 650 -16 192 135 370 -16 b 1249 506 1017 -16 1249 188 b 790 910 1249 751 1067 910 b 192 374 424 910 192 701 z m 297 382 b 783 817 297 647 475 817 b 1145 500 1013 817 1145 693 b 660 77 1145 242 968 77 b 297 382 431 77 297 197 z "},"Ô":{"ha":1289,"x_min":0,"x_max":0,"o":"m 569 1049 l 626 988 l 828 1150 l 972 988 l 1035 1039 l 876 1208 l 783 1208 z m 192 374 b 650 -16 192 135 370 -16 b 1249 506 1017 -16 1249 188 b 790 910 1249 751 1067 910 b 192 374 424 910 192 701 z m 297 382 b 783 817 297 647 475 817 b 1145 500 1013 817 1145 693 b 660 77 1145 242 968 77 b 297 382 431 77 297 197 z "},"Õ":{"ha":1289,"x_min":0,"x_max":0,"o":"m 790 910 b 192 374 424 910 192 701 b 650 -16 192 135 370 -16 b 1249 506 1017 -16 1249 188 b 790 910 1249 751 1067 910 z m 297 382 b 783 817 297 647 475 817 b 1145 500 1013 817 1145 693 b 660 77 1145 242 968 77 b 297 382 431 77 297 197 z m 572 1053 l 633 1017 b 732 1089 658 1052 689 1089 b 811 1049 761 1089 785 1069 b 913 1010 838 1030 869 1010 b 1088 1135 978 1010 1038 1046 l 1024 1168 b 922 1088 991 1113 961 1088 b 852 1121 897 1088 876 1103 b 740 1168 823 1143 790 1168 b 572 1053 677 1168 615 1133 z "},"Ö":{"ha":1289,"x_min":0,"x_max":0,"o":"m 640 1127 l 621 1018 l 729 1018 l 748 1127 z m 192 374 b 650 -16 192 135 370 -16 b 1249 506 1017 -16 1249 188 b 790 910 1249 751 1067 910 b 192 374 424 910 192 701 z m 297 382 b 783 817 297 647 475 817 b 1145 500 1013 817 1145 693 b 660 77 1145 242 968 77 b 297 382 431 77 297 197 z m 856 1018 l 965 1018 l 983 1127 l 875 1127 z "},"Ō":{"ha":1289,"x_min":0,"x_max":0,"o":"m 626 1110 l 613 1031 l 1022 1031 l 1036 1110 z m 192 374 b 650 -16 192 135 370 -16 b 1249 506 1017 -16 1249 188 b 790 910 1249 751 1067 910 b 192 374 424 910 192 701 z m 297 382 b 783 817 297 647 475 817 b 1145 500 1013 817 1145 693 b 660 77 1145 242 968 77 b 297 382 431 77 297 197 z "},"Ŏ":{"ha":1289,"x_min":0,"x_max":0,"o":"m 790 910 b 192 374 424 910 192 701 b 650 -16 192 135 370 -16 b 1249 506 1017 -16 1249 188 b 790 910 1249 751 1067 910 z m 297 382 b 783 817 297 647 475 817 b 1145 500 1013 817 1145 693 b 660 77 1145 242 968 77 b 297 382 431 77 297 197 z m 648 1164 b 825 997 648 1068 696 997 b 1069 1196 973 997 1043 1092 l 988 1204 b 832 1072 949 1097 897 1072 b 726 1201 768 1072 726 1097 l 726 1203 l 649 1196 b 648 1164 648 1185 648 1174 z "},"Ő":{"ha":1289,"x_min":0,"x_max":0,"o":"m 606 1043 l 664 989 l 915 1200 l 852 1265 z m 192 374 b 650 -16 192 135 370 -16 b 1249 506 1017 -16 1249 188 b 790 910 1249 751 1067 910 b 192 374 424 910 192 701 z m 297 382 b 783 817 297 647 475 817 b 1145 500 1013 817 1145 693 b 660 77 1145 242 968 77 b 297 382 431 77 297 197 z m 883 1056 l 935 996 l 1199 1188 l 1144 1258 z "},"P":{"ha":1104,"x_min":0,"x_max":0,"o":"m 810 896 l 322 896 l 167 0 l 264 0 l 307 250 l 688 250 b 1137 618 984 250 1137 360 b 810 896 1137 799 1015 896 z m 322 340 l 403 806 l 792 806 b 1033 602 966 806 1033 731 b 703 340 1033 456 949 340 z "},"Q":{"ha":1289,"x_min":0,"x_max":0,"o":"m 790 910 b 192 374 424 910 192 701 b 650 -16 192 135 370 -16 b 826 1 713 -16 772 -10 l 892 -178 l 972 -147 l 909 24 b 1249 506 1123 99 1249 272 b 790 910 1249 751 1067 910 z m 297 382 b 783 817 297 647 475 817 b 1145 500 1013 817 1145 693 b 877 110 1145 311 1049 172 l 792 342 l 712 311 l 794 89 b 660 77 753 81 708 77 b 297 382 431 77 297 197 z "},"R":{"ha":1157,"x_min":0,"x_max":0,"o":"m 728 292 b 840 301 767 292 804 295 l 935 -16 l 1027 8 l 928 326 b 1143 640 1060 375 1143 481 b 797 896 1143 788 1035 896 l 322 896 l 167 0 l 264 0 l 315 292 z m 330 381 l 403 806 l 792 806 b 1040 628 967 806 1040 742 b 728 381 1040 481 935 381 z "},"Ŕ":{"ha":1157,"x_min":0,"x_max":0,"o":"m 651 1065 l 684 992 l 993 1134 l 954 1217 z m 167 0 l 264 0 l 315 292 l 728 292 b 840 301 767 292 804 295 l 935 -16 l 1027 8 l 928 326 b 1143 640 1060 375 1143 481 b 797 896 1143 788 1035 896 l 322 896 z m 330 381 l 403 806 l 792 806 b 1040 628 967 806 1040 742 b 728 381 1040 481 935 381 z "},"Ŗ":{"ha":1157,"x_min":0,"x_max":0,"o":"m 538 -376 l 624 -219 l 648 -79 l 543 -79 l 519 -215 l 553 -215 l 493 -356 z m 167 0 l 264 0 l 315 292 l 728 292 b 840 301 767 292 804 295 l 935 -16 l 1027 8 l 928 326 b 1143 640 1060 375 1143 481 b 797 896 1143 788 1035 896 l 322 896 z m 330 381 l 403 806 l 792 806 b 1040 628 967 806 1040 742 b 728 381 1040 481 935 381 z "},"Ř":{"ha":1157,"x_min":0,"x_max":0,"o":"m 532 1182 l 688 1018 l 782 1018 l 987 1182 l 931 1237 l 738 1076 l 597 1235 z m 167 0 l 264 0 l 315 292 l 728 292 b 840 301 767 292 804 295 l 935 -16 l 1027 8 l 928 326 b 1143 640 1060 375 1143 481 b 797 896 1143 788 1035 896 l 322 896 z m 330 381 l 403 806 l 792 806 b 1040 628 967 806 1040 742 b 728 381 1040 481 935 381 z "},"S":{"ha":1055,"x_min":0,"x_max":0,"o":"m 510 -16 b 998 308 817 -16 998 77 b 636 510 998 479 811 497 b 334 636 481 522 334 529 b 675 823 334 758 444 823 b 990 766 806 823 911 791 l 1022 849 b 669 910 949 878 820 910 b 233 628 429 910 233 831 b 594 419 233 452 408 431 b 901 288 751 408 901 402 b 526 76 901 139 738 76 b 161 156 365 76 238 119 l 129 65 b 510 -16 191 32 317 -16 z "},"Ś":{"ha":1055,"x_min":0,"x_max":0,"o":"m 613 1065 l 646 992 l 955 1134 l 916 1217 z m 129 65 b 510 -16 191 32 317 -16 b 998 308 817 -16 998 77 b 636 510 998 479 811 497 b 334 636 481 522 334 529 b 675 823 334 758 444 823 b 990 766 806 823 911 791 l 1022 849 b 669 910 949 878 820 910 b 233 628 429 910 233 831 b 594 419 233 452 408 431 b 901 288 751 408 901 402 b 526 76 901 139 738 76 b 161 156 365 76 238 119 z "},"Ŝ":{"ha":1055,"x_min":0,"x_max":0,"o":"m 471 1049 l 528 988 l 729 1150 l 873 988 l 936 1039 l 778 1208 l 684 1208 z m 129 65 b 510 -16 191 32 317 -16 b 998 308 817 -16 998 77 b 636 510 998 479 811 497 b 334 636 481 522 334 529 b 675 823 334 758 444 823 b 990 766 806 823 911 791 l 1022 849 b 669 910 949 878 820 910 b 233 628 429 910 233 831 b 594 419 233 452 408 431 b 901 288 751 408 901 402 b 526 76 901 139 738 76 b 161 156 365 76 238 119 z "},"Ş":{"ha":1055,"x_min":0,"x_max":0,"o":"m 510 -16 l 513 -16 b 581 -123 566 -47 581 -88 b 469 -222 581 -181 542 -222 b 353 -204 419 -222 379 -212 l 331 -270 b 458 -290 357 -280 402 -290 b 660 -123 588 -290 660 -229 b 622 -11 660 -81 649 -43 b 998 308 860 10 998 107 b 636 510 998 479 811 497 b 334 636 481 522 334 529 b 675 823 334 758 444 823 b 990 766 806 823 911 791 l 1022 849 b 669 910 949 878 820 910 b 233 628 429 910 233 831 b 594 419 233 452 408 431 b 901 288 751 408 901 402 b 526 76 901 139 738 76 b 161 156 365 76 238 119 l 129 65 b 510 -16 191 32 317 -16 z "},"Š":{"ha":1055,"x_min":0,"x_max":0,"o":"m 470 1182 l 626 1018 l 720 1018 l 925 1182 l 869 1237 l 676 1076 l 535 1235 z m 129 65 b 510 -16 191 32 317 -16 b 998 308 817 -16 998 77 b 636 510 998 479 811 497 b 334 636 481 522 334 529 b 675 823 334 758 444 823 b 990 766 806 823 911 791 l 1022 849 b 669 910 949 878 820 910 b 233 628 429 910 233 831 b 594 419 233 452 408 431 b 901 288 751 408 901 402 b 526 76 901 139 738 76 b 161 156 365 76 238 119 z "},"Ș":{"ha":1055,"x_min":0,"x_max":0,"o":"m 490 -376 l 575 -219 l 599 -79 l 494 -79 l 471 -215 l 505 -215 l 444 -356 z m 129 65 b 510 -16 191 32 317 -16 b 998 308 817 -16 998 77 b 636 510 998 479 811 497 b 334 636 481 522 334 529 b 675 823 334 758 444 823 b 990 766 806 823 911 791 l 1022 849 b 669 910 949 878 820 910 b 233 628 429 910 233 831 b 594 419 233 452 408 431 b 901 288 751 408 901 402 b 526 76 901 139 738 76 b 161 156 365 76 238 119 z "},"T":{"ha":985,"x_min":0,"x_max":0,"o":"m 572 806 l 432 0 l 529 0 l 669 806 l 1097 806 l 1111 896 l 183 896 l 167 806 z "},"Ţ":{"ha":985,"x_min":0,"x_max":0,"o":"m 414 -376 l 499 -219 l 524 -79 l 419 -79 l 395 -215 l 429 -215 l 369 -356 z m 167 806 l 572 806 l 432 0 l 529 0 l 669 806 l 1097 806 l 1111 896 l 183 896 z "},"Ť":{"ha":985,"x_min":0,"x_max":0,"o":"m 449 1182 l 605 1018 l 699 1018 l 903 1182 l 848 1237 l 654 1076 l 513 1235 z m 167 806 l 572 806 l 432 0 l 529 0 l 669 806 l 1097 806 l 1111 896 l 183 896 z "},"U":{"ha":1163,"x_min":0,"x_max":0,"o":"m 217 408 b 207 302 210 369 207 334 b 576 -16 207 20 444 -16 b 1088 409 769 -16 1024 44 l 1172 896 l 1075 896 l 992 415 b 581 77 947 162 785 77 b 306 318 433 77 306 128 b 315 415 306 347 309 379 l 399 896 l 301 896 z "},"Ù":{"ha":1163,"x_min":0,"x_max":0,"o":"m 217 408 b 207 302 210 369 207 334 b 576 -16 207 20 444 -16 b 1088 409 769 -16 1024 44 l 1172 896 l 1075 896 l 992 415 b 581 77 947 162 785 77 b 306 318 433 77 306 128 b 315 415 306 347 309 379 l 399 896 l 301 896 z m 533 1135 l 765 996 l 817 1065 l 592 1215 z "},"Ú":{"ha":1163,"x_min":0,"x_max":0,"o":"m 689 1065 l 722 992 l 1031 1134 l 992 1217 z m 207 302 b 576 -16 207 20 444 -16 b 1088 409 769 -16 1024 44 l 1172 896 l 1075 896 l 992 415 b 581 77 947 162 785 77 b 306 318 433 77 306 128 b 315 415 306 347 309 379 l 399 896 l 301 896 l 217 408 b 207 302 210 369 207 334 z "},"Û":{"ha":1163,"x_min":0,"x_max":0,"o":"m 524 1049 l 581 988 l 783 1150 l 926 988 l 990 1039 l 831 1208 l 738 1208 z m 207 302 b 576 -16 207 20 444 -16 b 1088 409 769 -16 1024 44 l 1172 896 l 1075 896 l 992 415 b 581 77 947 162 785 77 b 306 318 433 77 306 128 b 315 415 306 347 309 379 l 399 896 l 301 896 l 217 408 b 207 302 210 369 207 334 z "},"Ü":{"ha":1163,"x_min":0,"x_max":0,"o":"m 606 1127 l 587 1018 l 695 1018 l 714 1127 z m 207 302 b 576 -16 207 20 444 -16 b 1088 409 769 -16 1024 44 l 1172 896 l 1075 896 l 992 415 b 581 77 947 162 785 77 b 306 318 433 77 306 128 b 315 415 306 347 309 379 l 399 896 l 301 896 l 217 408 b 207 302 210 369 207 334 z m 822 1018 l 931 1018 l 949 1127 l 841 1127 z "},"Ũ":{"ha":1163,"x_min":0,"x_max":0,"o":"m 217 408 b 207 302 210 369 207 334 b 576 -16 207 20 444 -16 b 1088 409 769 -16 1024 44 l 1172 896 l 1075 896 l 992 415 b 581 77 947 162 785 77 b 306 318 433 77 306 128 b 315 415 306 347 309 379 l 399 896 l 301 896 z m 515 1053 l 576 1017 b 675 1089 601 1052 632 1089 b 754 1049 704 1089 728 1069 b 856 1010 781 1030 812 1010 b 1031 1135 922 1010 981 1046 l 967 1168 b 865 1088 934 1113 904 1088 b 795 1121 840 1088 819 1103 b 683 1168 766 1143 733 1168 b 515 1053 620 1168 558 1133 z "},"Ū":{"ha":1163,"x_min":0,"x_max":0,"o":"m 217 408 b 207 302 210 369 207 334 b 576 -16 207 20 444 -16 b 1088 409 769 -16 1024 44 l 1172 896 l 1075 896 l 992 415 b 581 77 947 162 785 77 b 306 318 433 77 306 128 b 315 415 306 347 309 379 l 399 896 l 301 896 z m 551 1031 l 961 1031 l 975 1110 l 565 1110 z "},"Ŭ":{"ha":1163,"x_min":0,"x_max":0,"o":"m 217 408 b 207 302 210 369 207 334 b 576 -16 207 20 444 -16 b 1088 409 769 -16 1024 44 l 1172 896 l 1075 896 l 992 415 b 581 77 947 162 785 77 b 306 318 433 77 306 128 b 315 415 306 347 309 379 l 399 896 l 301 896 z m 584 1164 b 761 997 584 1068 632 997 b 1006 1196 909 997 979 1092 l 924 1204 b 768 1072 885 1097 833 1072 b 663 1201 704 1072 663 1097 l 663 1203 l 585 1196 b 584 1164 584 1185 584 1174 z "},"Ů":{"ha":1163,"x_min":0,"x_max":0,"o":"m 771 980 b 947 1128 867 980 947 1044 b 804 1252 946 1206 894 1252 b 628 1102 703 1252 628 1183 b 771 980 628 1031 675 980 z m 207 302 b 576 -16 207 20 444 -16 b 1088 409 769 -16 1024 44 l 1172 896 l 1075 896 l 992 415 b 581 77 947 162 785 77 b 306 318 433 77 306 128 b 315 415 306 347 309 379 l 399 896 l 301 896 l 217 408 b 207 302 210 369 207 334 z m 699 1109 b 801 1194 699 1152 740 1194 b 875 1124 854 1194 875 1161 b 774 1039 875 1079 833 1039 b 699 1109 720 1039 699 1073 z "},"Ű":{"ha":1163,"x_min":0,"x_max":0,"o":"m 217 408 b 207 302 210 369 207 334 b 576 -16 207 20 444 -16 b 1088 409 769 -16 1024 44 l 1172 896 l 1075 896 l 992 415 b 581 77 947 162 785 77 b 306 318 433 77 306 128 b 315 415 306 347 309 379 l 399 896 l 301 896 z m 563 1043 l 620 989 l 871 1200 l 808 1265 z m 839 1056 l 891 996 l 1156 1188 l 1101 1258 z "},"Ų":{"ha":1163,"x_min":0,"x_max":0,"o":"m 217 408 b 207 302 210 369 207 334 b 524 -14 207 54 390 -3 b 440 -167 465 -60 440 -110 b 583 -290 440 -243 494 -290 b 719 -266 635 -290 678 -280 l 701 -201 b 592 -222 668 -213 642 -222 b 522 -156 547 -222 522 -203 b 653 -12 522 -109 553 -61 b 1088 409 831 4 1033 90 l 1172 896 l 1075 896 l 992 415 b 581 77 947 162 785 77 b 306 318 433 77 306 128 b 315 415 306 347 309 379 l 399 896 l 301 896 z "},"V":{"ha":1076,"x_min":0,"x_max":0,"o":"m 194 881 l 480 0 l 618 0 l 1184 867 l 1101 913 l 557 76 l 287 911 z "},"W":{"ha":1501,"x_min":0,"x_max":0,"o":"m 217 893 l 372 0 l 515 0 l 904 818 l 1010 0 l 1158 0 l 1589 876 l 1503 914 l 1092 72 l 986 896 l 840 896 l 453 78 l 315 910 z "},"Ŵ":{"ha":1501,"x_min":0,"x_max":0,"o":"m 681 1049 l 738 988 l 940 1150 l 1083 988 l 1147 1039 l 988 1208 l 894 1208 z m 217 893 l 372 0 l 515 0 l 904 818 l 1010 0 l 1158 0 l 1589 876 l 1503 914 l 1092 72 l 986 896 l 840 896 l 453 78 l 315 910 z "},"Ẁ":{"ha":1501,"x_min":0,"x_max":0,"o":"m 217 893 l 372 0 l 515 0 l 904 818 l 1010 0 l 1158 0 l 1589 876 l 1503 914 l 1092 72 l 986 896 l 840 896 l 453 78 l 315 910 z m 726 1135 l 958 996 l 1010 1065 l 785 1215 z "},"Ẃ":{"ha":1501,"x_min":0,"x_max":0,"o":"m 873 1065 l 906 992 l 1215 1134 l 1176 1217 z m 217 893 l 372 0 l 515 0 l 904 818 l 1010 0 l 1158 0 l 1589 876 l 1503 914 l 1092 72 l 986 896 l 840 896 l 453 78 l 315 910 z "},"Ẅ":{"ha":1501,"x_min":0,"x_max":0,"o":"m 767 1127 l 749 1018 l 857 1018 l 876 1127 z m 217 893 l 372 0 l 515 0 l 904 818 l 1010 0 l 1158 0 l 1589 876 l 1503 914 l 1092 72 l 986 896 l 840 896 l 453 78 l 315 910 z m 984 1018 l 1092 1018 l 1111 1127 l 1003 1127 z "},"X":{"ha":1090,"x_min":0,"x_max":0,"o":"m 76 47 l 138 -19 l 622 400 l 970 -15 l 1046 41 l 695 458 l 1146 842 l 1085 907 l 640 524 l 324 903 l 248 845 l 565 465 z "},"Y":{"ha":1094,"x_min":0,"x_max":0,"o":"m 558 253 l 514 0 l 610 0 l 654 251 l 1203 847 l 1134 907 l 613 343 l 272 908 l 190 858 z "},"Ý":{"ha":1094,"x_min":0,"x_max":0,"o":"m 558 253 l 514 0 l 610 0 l 654 251 l 1203 847 l 1134 907 l 613 343 l 272 908 l 190 858 z m 633 1065 l 666 992 l 975 1134 l 936 1217 z "},"Ŷ":{"ha":1094,"x_min":0,"x_max":0,"o":"m 558 253 l 514 0 l 610 0 l 654 251 l 1203 847 l 1134 907 l 613 343 l 272 908 l 190 858 z m 483 1049 l 540 988 l 741 1150 l 885 988 l 948 1039 l 790 1208 l 696 1208 z "},"Ÿ":{"ha":1094,"x_min":0,"x_max":0,"o":"m 558 253 l 514 0 l 610 0 l 654 251 l 1203 847 l 1134 907 l 613 343 l 272 908 l 190 858 z m 533 1018 l 641 1018 l 660 1127 l 551 1127 z m 768 1018 l 876 1018 l 895 1127 l 787 1127 z "},"Z":{"ha":1021,"x_min":0,"x_max":0,"o":"m 94 120 l 73 0 l 962 0 l 977 90 l 193 90 l 1065 769 l 1087 896 l 269 896 l 254 806 l 974 806 z "},"Ź":{"ha":1021,"x_min":0,"x_max":0,"o":"m 609 1065 l 642 992 l 951 1134 l 913 1217 z m 73 0 l 962 0 l 977 90 l 193 90 l 1065 769 l 1087 896 l 269 896 l 254 806 l 974 806 l 94 120 z "},"Ż":{"ha":1021,"x_min":0,"x_max":0,"o":"m 94 120 l 73 0 l 962 0 l 977 90 l 193 90 l 1065 769 l 1087 896 l 269 896 l 254 806 l 974 806 z m 657 1018 l 765 1018 l 784 1127 l 676 1127 z "},"Ž":{"ha":1021,"x_min":0,"x_max":0,"o":"m 510 1182 l 666 1018 l 760 1018 l 965 1182 l 909 1237 l 715 1076 l 574 1235 z m 73 0 l 962 0 l 977 90 l 193 90 l 1065 769 l 1087 896 l 269 896 l 254 806 l 974 806 l 94 120 z "},"Æ":{"ha":1644,"x_min":0,"x_max":0,"o":"m 63 42 l 131 -16 l 341 206 l 803 206 l 768 0 l 1560 -1 l 1576 86 l 882 86 l 938 412 l 1512 412 l 1526 495 l 953 495 l 1008 811 l 1687 811 l 1701 896 l 872 896 z m 419 288 l 907 802 l 818 288 z "},"Ǽ":{"ha":1644,"x_min":0,"x_max":0,"o":"m 922 1065 l 955 992 l 1264 1134 l 1225 1217 z m 63 42 l 131 -16 l 341 206 l 803 206 l 768 0 l 1560 -1 l 1576 86 l 882 86 l 938 412 l 1512 412 l 1526 495 l 953 495 l 1008 811 l 1687 811 l 1701 896 l 872 896 z m 419 288 l 907 802 l 818 288 z "},"Ð":{"ha":1201,"x_min":0,"x_max":0,"o":"m 108 393 l 256 393 l 188 0 l 563 0 b 1162 532 967 0 1162 170 b 722 896 1162 768 1031 896 l 343 896 l 270 473 l 122 473 z m 301 90 l 353 393 l 622 393 l 635 473 l 367 473 l 425 806 l 717 806 b 1058 517 970 806 1058 695 b 578 90 1058 299 967 90 z "},"Ø":{"ha":1289,"x_min":0,"x_max":0,"o":"m 183 49 l 240 -14 l 340 71 b 650 -16 418 15 524 -16 b 1249 506 1017 -16 1249 188 b 1162 761 1249 607 1218 694 l 1267 849 l 1210 913 l 1099 819 b 790 910 1021 878 915 910 b 192 374 424 910 192 701 b 277 128 192 276 222 192 z m 297 382 b 783 817 297 647 475 817 b 1022 753 881 817 962 794 l 358 196 b 297 382 317 245 297 308 z m 421 138 l 1084 695 b 1145 500 1124 644 1145 577 b 660 77 1145 242 968 77 b 421 138 562 77 481 99 z "},"Ǿ":{"ha":1289,"x_min":0,"x_max":0,"o":"m 240 -14 l 340 71 b 650 -16 418 15 524 -16 b 1249 506 1017 -16 1249 188 b 1162 761 1249 607 1218 694 l 1267 849 l 1210 913 l 1099 819 b 790 910 1021 878 915 910 b 192 374 424 910 192 701 b 277 128 192 276 222 192 l 183 49 z m 297 382 b 783 817 297 647 475 817 b 1022 753 881 817 962 794 l 358 196 b 297 382 317 245 297 308 z m 421 138 l 1084 695 b 1145 500 1124 644 1145 577 b 660 77 1145 242 968 77 b 421 138 562 77 481 99 z m 744 1065 l 778 992 l 1087 1134 l 1048 1217 z "},"Þ":{"ha":1123,"x_min":0,"x_max":0,"o":"m 322 896 l 167 0 l 266 0 l 292 152 l 698 152 b 1105 503 956 152 1105 262 b 801 756 1105 663 990 756 l 397 756 l 421 896 z m 307 238 l 382 672 l 803 672 b 1007 488 934 672 1007 602 b 708 238 1007 356 929 238 z "},"Đ":{"ha":1201,"x_min":0,"x_max":0,"o":"m 108 393 l 256 393 l 188 0 l 563 0 b 1162 532 967 0 1162 170 b 722 896 1162 768 1031 896 l 343 896 l 270 473 l 122 473 z m 301 90 l 353 393 l 622 393 l 635 473 l 367 473 l 425 806 l 717 806 b 1058 517 970 806 1058 695 b 578 90 1058 299 967 90 z "},"Ħ":{"ha":1258,"x_min":0,"x_max":0,"o":"m 190 735 l 176 655 l 280 655 l 167 0 l 264 0 l 332 394 l 1063 394 l 994 0 l 1092 0 l 1205 655 l 1301 655 l 1315 735 l 1219 735 l 1247 896 l 1149 896 l 1122 735 l 391 735 l 419 896 l 322 896 l 294 735 z m 347 483 l 377 655 l 1108 655 l 1078 483 z "},"Ĳ":{"ha":1319,"x_min":0,"x_max":0,"o":"m 322 896 l 167 0 l 264 0 l 419 896 z m 524 63 b 824 -16 594 18 698 -16 b 1226 306 987 -16 1180 37 l 1328 896 l 1231 896 l 1130 309 b 827 77 1099 135 969 77 b 565 150 710 77 624 115 z "},"Ŀ":{"ha":934,"x_min":0,"x_max":0,"o":"m 322 896 l 167 0 l 905 0 l 920 90 l 279 90 l 419 896 z m 638 417 l 753 417 l 776 554 l 661 554 z "},"Ł":{"ha":934,"x_min":0,"x_max":0,"o":"m 83 390 l 110 316 l 230 367 l 167 0 l 905 0 l 920 90 l 279 90 l 335 412 l 616 532 l 585 606 l 351 506 l 419 896 l 322 896 l 247 460 z "},"Ŋ":{"ha":1229,"x_min":0,"x_max":0,"o":"m 706 -197 l 714 -283 b 1057 -31 889 -283 1028 -199 l 1217 896 l 1119 896 l 988 136 l 442 896 l 322 896 l 167 0 l 265 0 l 400 785 l 967 3 b 706 -197 937 -170 799 -196 z "},"Œ":{"ha":1658,"x_min":0,"x_max":0,"o":"m 801 896 b 197 361 410 896 197 701 b 651 0 197 140 333 0 l 1546 0 l 1561 88 l 910 88 l 965 410 l 1498 410 l 1513 499 l 981 499 l 1034 806 l 1672 806 l 1688 896 z m 303 367 b 776 805 303 597 401 805 l 934 805 l 810 90 l 645 90 b 303 367 394 90 303 206 z "},"Ŧ":{"ha":985,"x_min":0,"x_max":0,"o":"m 306 473 l 292 393 l 500 393 l 432 0 l 529 0 l 597 393 l 804 393 l 818 473 l 611 473 l 669 806 l 1097 806 l 1111 896 l 183 896 l 167 806 l 572 806 l 514 473 z "},"Ω":{"ha":1264,"x_min":0,"x_max":0,"o":"m 353 88 l 119 88 l 104 0 l 494 0 l 509 88 b 323 398 392 144 323 256 b 774 819 323 676 539 819 b 1099 520 958 819 1099 719 b 778 88 1099 328 963 165 l 763 0 l 1160 0 l 1175 88 l 942 88 b 1209 537 1105 188 1209 333 b 789 910 1209 780 1016 910 b 216 393 493 910 216 731 b 353 88 216 262 267 161 z "},"a":{"ha":911,"x_min":0,"x_max":0,"o":"m 631 417 b 124 158 273 417 124 324 b 352 -16 124 28 235 -16 b 709 97 490 -16 610 35 l 709 0 l 786 0 l 860 428 b 866 491 865 451 866 472 b 592 692 866 632 765 692 b 271 637 450 692 339 663 l 293 554 b 577 606 351 575 457 606 b 771 479 710 606 771 571 b 763 414 771 464 767 427 b 631 417 717 417 673 417 z m 226 165 b 623 341 226 269 330 341 b 750 337 661 341 704 340 l 725 193 b 360 67 623 126 492 67 b 226 165 269 67 226 109 z "},"à":{"ha":911,"x_min":0,"x_max":0,"o":"m 631 417 b 124 158 273 417 124 324 b 352 -16 124 28 235 -16 b 709 97 490 -16 610 35 l 709 0 l 786 0 l 860 428 b 866 491 865 451 866 472 b 592 692 866 632 765 692 b 271 637 450 692 339 663 l 293 554 b 577 606 351 575 457 606 b 771 479 710 606 771 571 b 763 414 771 464 767 427 b 631 417 717 417 673 417 z m 226 165 b 623 341 226 269 330 341 b 750 337 661 341 704 340 l 725 193 b 360 67 623 126 492 67 b 226 165 269 67 226 109 z m 475 951 l 659 756 l 719 806 l 559 1022 z "},"á":{"ha":911,"x_min":0,"x_max":0,"o":"m 631 417 b 124 158 273 417 124 324 b 352 -16 124 28 235 -16 b 709 97 490 -16 610 35 l 709 0 l 786 0 l 860 428 b 866 491 865 451 866 472 b 592 692 866 632 765 692 b 271 637 450 692 339 663 l 293 554 b 577 606 351 575 457 606 b 771 479 710 606 771 571 b 763 414 771 464 767 427 b 631 417 717 417 673 417 z m 226 165 b 623 341 226 269 330 341 b 750 337 661 341 704 340 l 725 193 b 360 67 623 126 492 67 b 226 165 269 67 226 109 z m 519 810 l 569 756 l 820 951 l 756 1024 z "},"â":{"ha":911,"x_min":0,"x_max":0,"o":"m 631 417 b 124 158 273 417 124 324 b 352 -16 124 28 235 -16 b 709 97 490 -16 610 35 l 709 0 l 786 0 l 860 428 b 866 491 865 451 866 472 b 592 692 866 632 765 692 b 271 637 450 692 339 663 l 293 554 b 577 606 351 575 457 606 b 771 479 710 606 771 571 b 763 414 771 464 767 427 b 631 417 717 417 673 417 z m 226 165 b 623 341 226 269 330 341 b 750 337 661 341 704 340 l 725 193 b 360 67 623 126 492 67 b 226 165 269 67 226 109 z m 415 810 l 478 756 l 649 938 l 753 756 l 831 799 l 715 990 l 592 990 z "},"ã":{"ha":911,"x_min":0,"x_max":0,"o":"m 631 417 b 124 158 273 417 124 324 b 352 -16 124 28 235 -16 b 709 97 490 -16 610 35 l 709 0 l 786 0 l 860 428 b 866 491 865 451 866 472 b 592 692 866 632 765 692 b 271 637 450 692 339 663 l 293 554 b 577 606 351 575 457 606 b 771 479 710 606 771 571 b 763 414 771 464 767 427 b 631 417 717 417 673 417 z m 226 165 b 623 341 226 269 330 341 b 750 337 661 341 704 340 l 725 193 b 360 67 623 126 492 67 b 226 165 269 67 226 109 z m 378 812 l 440 778 b 531 849 462 813 492 849 b 610 808 559 849 582 828 b 712 770 637 789 667 770 b 874 895 771 770 820 793 l 809 928 b 715 848 778 873 751 848 b 640 888 688 848 665 867 b 538 928 613 908 582 928 b 378 812 472 928 419 894 z "},"ä":{"ha":911,"x_min":0,"x_max":0,"o":"m 631 417 b 124 158 273 417 124 324 b 352 -16 124 28 235 -16 b 709 97 490 -16 610 35 l 709 0 l 786 0 l 860 428 b 866 491 865 451 866 472 b 592 692 866 632 765 692 b 271 637 450 692 339 663 l 293 554 b 577 606 351 575 457 606 b 771 479 710 606 771 571 b 763 414 771 464 767 427 b 631 417 717 417 673 417 z m 226 165 b 623 341 226 269 330 341 b 750 337 661 341 704 340 l 725 193 b 360 67 623 126 492 67 b 226 165 269 67 226 109 z m 442 783 l 538 783 l 560 910 l 464 910 z m 665 783 l 761 783 l 783 910 l 687 910 z "},"å":{"ha":911,"x_min":0,"x_max":0,"o":"m 631 417 b 124 158 273 417 124 324 b 352 -16 124 28 235 -16 b 709 97 490 -16 610 35 l 709 0 l 786 0 l 860 428 b 866 491 865 451 866 472 b 592 692 866 632 765 692 b 271 637 450 692 339 663 l 293 554 b 577 606 351 575 457 606 b 771 479 710 606 771 571 b 763 414 771 464 767 427 b 631 417 717 417 673 417 z m 226 165 b 623 341 226 269 330 341 b 750 337 661 341 704 340 l 725 193 b 360 67 623 126 492 67 b 226 165 269 67 226 109 z m 485 874 b 621 756 485 805 530 756 b 790 901 714 756 790 819 b 654 1021 789 975 739 1021 b 485 874 557 1021 485 951 z m 556 881 b 651 963 556 924 592 963 b 718 897 700 963 718 932 b 624 815 718 851 681 815 b 556 881 574 815 556 845 z "},"ā":{"ha":911,"x_min":0,"x_max":0,"o":"m 631 417 b 124 158 273 417 124 324 b 352 -16 124 28 235 -16 b 709 97 490 -16 610 35 l 709 0 l 786 0 l 860 428 b 866 491 865 451 866 472 b 592 692 866 632 765 692 b 271 637 450 692 339 663 l 293 554 b 577 606 351 575 457 606 b 771 479 710 606 771 571 b 763 414 771 464 767 427 b 631 417 717 417 673 417 z m 226 165 b 623 341 226 269 330 341 b 750 337 661 341 704 340 l 725 193 b 360 67 623 126 492 67 b 226 165 269 67 226 109 z m 419 783 l 815 783 l 829 863 l 433 863 z "},"ă":{"ha":911,"x_min":0,"x_max":0,"o":"m 631 417 b 124 158 273 417 124 324 b 352 -16 124 28 235 -16 b 709 97 490 -16 610 35 l 709 0 l 786 0 l 860 428 b 866 491 865 451 866 472 b 592 692 866 632 765 692 b 271 637 450 692 339 663 l 293 554 b 577 606 351 575 457 606 b 771 479 710 606 771 571 b 763 414 771 464 767 427 b 631 417 717 417 673 417 z m 226 165 b 623 341 226 269 330 341 b 750 337 661 341 704 340 l 725 193 b 360 67 623 126 492 67 b 226 165 269 67 226 109 z m 453 909 b 617 756 453 813 505 756 b 837 946 747 756 811 839 l 757 957 b 620 827 723 855 667 827 b 535 937 573 827 535 845 b 536 957 535 943 535 950 l 456 953 b 453 909 454 938 453 923 z "},"ą":{"ha":928,"x_min":0,"x_max":0,"o":"m 785 0 l 786 0 l 860 428 b 866 491 865 451 866 472 b 592 692 866 632 765 692 b 271 637 450 692 339 663 l 293 554 b 577 606 351 575 457 606 b 771 479 710 606 771 571 b 763 414 771 464 767 427 b 631 417 717 417 673 417 b 124 158 273 417 124 324 b 352 -16 124 28 235 -16 b 709 97 490 -16 610 35 l 709 31 b 547 -167 589 -31 547 -92 b 690 -290 547 -243 600 -290 b 818 -266 738 -290 779 -280 l 800 -201 b 698 -222 769 -213 745 -222 b 628 -156 655 -222 628 -203 b 785 0 628 -105 665 -52 z m 226 165 b 623 341 226 269 330 341 b 750 337 661 341 704 340 l 725 193 b 360 67 623 126 492 67 b 226 165 269 67 226 109 z "},"ǻ":{"ha":911,"x_min":0,"x_max":0,"o":"m 547 1094 l 571 1033 l 832 1123 l 803 1195 z m 124 158 b 352 -16 124 28 235 -16 b 709 97 490 -16 610 35 l 709 0 l 786 0 l 860 428 b 866 491 865 451 866 472 b 592 692 866 632 765 692 b 271 637 450 692 339 663 l 293 554 b 577 606 351 575 457 606 b 771 479 710 606 771 571 b 763 414 771 464 767 427 b 631 417 717 417 673 417 b 124 158 273 417 124 324 z m 226 165 b 623 341 226 269 330 341 b 750 337 661 341 704 340 l 725 193 b 360 67 623 126 492 67 b 226 165 269 67 226 109 z m 478 855 b 614 736 478 785 523 736 b 783 881 707 736 783 800 b 647 1001 782 956 732 1001 b 478 855 550 1001 478 932 z m 549 862 b 644 944 549 905 585 944 b 711 877 693 944 711 913 b 617 795 711 832 674 795 b 549 862 567 795 549 826 z "},"b":{"ha":967,"x_min":0,"x_max":0,"o":"m 519 -16 b 929 397 762 -16 929 130 b 632 692 929 591 808 692 b 337 599 491 692 386 633 l 403 982 l 308 982 l 139 0 l 213 0 l 244 76 b 519 -16 288 41 378 -16 z m 263 167 l 319 492 b 607 605 382 542 490 605 b 826 384 748 605 826 530 b 527 70 826 185 701 70 b 263 167 424 70 345 103 z "},"c":{"ha":881,"x_min":0,"x_max":0,"o":"m 495 -16 b 808 61 615 -16 701 10 l 773 142 b 510 70 701 108 610 70 b 255 291 349 70 255 136 b 596 606 255 492 403 606 b 831 551 663 606 743 589 l 867 638 b 601 692 805 663 729 692 b 153 282 356 692 153 547 b 495 -16 153 85 278 -16 z "},"ç":{"ha":881,"x_min":0,"x_max":0,"o":"m 273 -204 l 250 -270 b 377 -290 276 -280 322 -290 b 579 -123 508 -290 579 -229 b 544 -15 579 -82 569 -46 b 808 61 640 -8 716 17 l 773 142 b 510 70 701 108 610 70 b 255 291 349 70 255 136 b 596 606 255 492 403 606 b 831 551 663 606 743 589 l 867 638 b 601 692 805 663 729 692 b 153 282 356 692 153 547 b 426 -12 153 108 252 8 b 500 -123 484 -44 500 -87 b 389 -222 500 -181 461 -222 b 273 -204 339 -222 299 -212 z "},"ć":{"ha":881,"x_min":0,"x_max":0,"o":"m 495 -16 b 808 61 615 -16 701 10 l 773 142 b 510 70 701 108 610 70 b 255 291 349 70 255 136 b 596 606 255 492 403 606 b 831 551 663 606 743 589 l 867 638 b 601 692 805 663 729 692 b 153 282 356 692 153 547 b 495 -16 153 85 278 -16 z m 485 810 l 535 756 l 786 951 l 722 1024 z "},"ĉ":{"ha":881,"x_min":0,"x_max":0,"o":"m 495 -16 b 808 61 615 -16 701 10 l 773 142 b 510 70 701 108 610 70 b 255 291 349 70 255 136 b 596 606 255 492 403 606 b 831 551 663 606 743 589 l 867 638 b 601 692 805 663 729 692 b 153 282 356 692 153 547 b 495 -16 153 85 278 -16 z m 408 810 l 471 756 l 642 938 l 746 756 l 824 799 l 708 990 l 585 990 z "},"ċ":{"ha":881,"x_min":0,"x_max":0,"o":"m 584 910 l 563 783 l 658 783 l 680 910 z m 153 282 b 495 -16 153 85 278 -16 b 808 61 615 -16 701 10 l 773 142 b 510 70 701 108 610 70 b 255 291 349 70 255 136 b 596 606 255 492 403 606 b 831 551 663 606 743 589 l 867 638 b 601 692 805 663 729 692 b 153 282 356 692 153 547 z "},"č":{"ha":881,"x_min":0,"x_max":0,"o":"m 495 -16 b 808 61 615 -16 701 10 l 773 142 b 510 70 701 108 610 70 b 255 291 349 70 255 136 b 596 606 255 492 403 606 b 831 551 663 606 743 589 l 867 638 b 601 692 805 663 729 692 b 153 282 356 692 153 547 b 495 -16 153 85 278 -16 z m 441 959 l 556 769 l 678 769 l 854 949 l 793 1004 l 622 822 l 518 1004 z "},"d":{"ha":967,"x_min":0,"x_max":0,"o":"m 569 692 b 153 274 333 692 153 544 b 452 -16 153 81 268 -16 b 756 85 593 -16 708 51 l 751 0 l 828 0 l 997 982 l 903 982 l 839 610 b 569 692 779 649 691 692 z m 254 280 b 567 606 254 474 365 606 b 823 520 660 606 742 577 l 765 182 b 473 69 701 135 588 69 b 254 280 333 69 254 132 z "},"ď":{"ha":1023,"x_min":0,"x_max":0,"o":"m 1138 994 l 1057 719 l 1137 701 l 1231 972 z m 153 274 b 452 -16 153 81 268 -16 b 756 85 593 -16 708 51 l 751 0 l 828 0 l 997 982 l 903 982 l 839 610 b 569 692 779 649 691 692 b 153 274 333 692 153 544 z m 254 280 b 567 606 254 474 365 606 b 823 520 660 606 742 577 l 765 182 b 473 69 701 135 588 69 b 254 280 333 69 254 132 z "},"e":{"ha":935,"x_min":0,"x_max":0,"o":"m 496 -17 b 842 69 613 -17 710 6 l 809 148 b 506 69 710 101 630 69 b 253 294 343 69 253 138 l 882 294 b 909 413 894 318 909 352 b 588 692 909 592 775 692 b 153 281 347 692 153 533 b 496 -17 153 76 298 -17 z m 263 373 b 582 606 297 516 417 606 b 815 412 729 606 815 528 b 812 373 815 400 814 382 z "},"è":{"ha":935,"x_min":0,"x_max":0,"o":"m 447 951 l 631 756 l 691 806 l 531 1022 z m 153 281 b 496 -17 153 76 298 -17 b 842 69 613 -17 710 6 l 809 148 b 506 69 710 101 630 69 b 253 294 343 69 253 138 l 882 294 b 909 413 894 318 909 352 b 588 692 909 592 775 692 b 153 281 347 692 153 533 z m 263 373 b 582 606 297 516 417 606 b 815 412 729 606 815 528 b 812 373 815 400 814 382 z "},"é":{"ha":935,"x_min":0,"x_max":0,"o":"m 496 -17 b 842 69 613 -17 710 6 l 809 148 b 506 69 710 101 630 69 b 253 294 343 69 253 138 l 882 294 b 909 413 894 318 909 352 b 588 692 909 592 775 692 b 153 281 347 692 153 533 b 496 -17 153 76 298 -17 z m 263 373 b 582 606 297 516 417 606 b 815 412 729 606 815 528 b 812 373 815 400 814 382 z m 524 810 l 575 756 l 826 951 l 761 1024 z "},"ê":{"ha":935,"x_min":0,"x_max":0,"o":"m 392 810 l 454 756 l 625 938 l 729 756 l 807 799 l 692 990 l 569 990 z m 153 281 b 496 -17 153 76 298 -17 b 842 69 613 -17 710 6 l 809 148 b 506 69 710 101 630 69 b 253 294 343 69 253 138 l 882 294 b 909 413 894 318 909 352 b 588 692 909 592 775 692 b 153 281 347 692 153 533 z m 263 373 b 582 606 297 516 417 606 b 815 412 729 606 815 528 b 812 373 815 400 814 382 z "},"ë":{"ha":935,"x_min":0,"x_max":0,"o":"m 463 910 l 441 783 l 537 783 l 558 910 z m 153 281 b 496 -17 153 76 298 -17 b 842 69 613 -17 710 6 l 809 148 b 506 69 710 101 630 69 b 253 294 343 69 253 138 l 882 294 b 909 413 894 318 909 352 b 588 692 909 592 775 692 b 153 281 347 692 153 533 z m 263 373 b 582 606 297 516 417 606 b 815 412 729 606 815 528 b 812 373 815 400 814 382 z m 664 783 l 760 783 l 781 910 l 685 910 z "},"ē":{"ha":935,"x_min":0,"x_max":0,"o":"m 496 -17 b 842 69 613 -17 710 6 l 809 148 b 506 69 710 101 630 69 b 253 294 343 69 253 138 l 882 294 b 909 413 894 318 909 352 b 588 692 909 592 775 692 b 153 281 347 692 153 533 b 496 -17 153 76 298 -17 z m 263 373 b 582 606 297 516 417 606 b 815 412 729 606 815 528 b 812 373 815 400 814 382 z m 401 783 l 797 783 l 811 863 l 415 863 z "},"ĕ":{"ha":935,"x_min":0,"x_max":0,"o":"m 496 -17 b 842 69 613 -17 710 6 l 809 148 b 506 69 710 101 630 69 b 253 294 343 69 253 138 l 882 294 b 909 413 894 318 909 352 b 588 692 909 592 775 692 b 153 281 347 692 153 533 b 496 -17 153 76 298 -17 z m 263 373 b 582 606 297 516 417 606 b 815 412 729 606 815 528 b 812 373 815 400 814 382 z m 442 909 b 606 756 442 813 494 756 b 826 946 735 756 800 839 l 746 957 b 609 827 712 855 656 827 b 524 937 562 827 524 845 b 525 957 524 943 524 950 l 445 953 b 442 909 443 938 442 923 z "},"ė":{"ha":935,"x_min":0,"x_max":0,"o":"m 572 910 l 550 783 l 646 783 l 667 910 z m 153 281 b 496 -17 153 76 298 -17 b 842 69 613 -17 710 6 l 809 148 b 506 69 710 101 630 69 b 253 294 343 69 253 138 l 882 294 b 909 413 894 318 909 352 b 588 692 909 592 775 692 b 153 281 347 692 153 533 z m 263 373 b 582 606 297 516 417 606 b 815 412 729 606 815 528 b 812 373 815 400 814 382 z "},"ę":{"ha":983,"x_min":0,"x_max":0,"o":"m 496 -17 b 588 -11 528 -17 558 -15 b 521 -167 541 -58 521 -106 b 664 -290 521 -243 574 -290 b 799 -266 715 -290 758 -280 l 781 -201 b 672 -222 749 -213 723 -222 b 603 -156 627 -222 603 -203 b 751 30 603 -96 638 -33 b 842 69 780 40 810 53 l 809 148 b 506 69 710 101 630 69 b 253 294 343 69 253 138 l 882 294 b 909 413 894 318 909 352 b 588 692 909 592 775 692 b 153 281 347 692 153 533 b 496 -17 153 76 298 -17 z m 263 373 b 582 606 297 516 417 606 b 815 412 729 606 815 528 b 812 373 815 400 814 382 z "},"ě":{"ha":935,"x_min":0,"x_max":0,"o":"m 496 -17 b 842 69 613 -17 710 6 l 809 148 b 506 69 710 101 630 69 b 253 294 343 69 253 138 l 882 294 b 909 413 894 318 909 352 b 588 692 909 592 775 692 b 153 281 347 692 153 533 b 496 -17 153 76 298 -17 z m 263 373 b 582 606 297 516 417 606 b 815 412 729 606 815 528 b 812 373 815 400 814 382 z m 426 959 l 540 769 l 663 769 l 839 949 l 778 1004 l 606 822 l 503 1004 z "},"f":{"ha":667,"x_min":0,"x_max":0,"o":"m 304 594 l 201 0 l 296 0 l 399 594 l 756 594 l 769 674 l 413 674 l 429 774 b 653 913 449 889 513 913 b 830 893 726 913 769 906 l 856 973 b 661 999 856 973 753 999 b 338 789 479 999 366 957 l 318 674 l 183 674 l 169 594 z "},"g":{"ha":998,"x_min":0,"x_max":0,"o":"m 159 -133 l 123 -216 b 426 -290 177 -248 274 -290 b 860 13 656 -290 824 -197 l 975 674 l 898 674 l 876 602 b 598 692 817 643 726 692 b 181 281 362 692 181 547 b 481 -1 181 93 297 -1 b 783 99 619 -1 733 65 l 770 28 b 430 -204 735 -172 544 -204 b 159 -133 298 -204 218 -164 z m 283 287 b 596 606 283 476 394 606 b 853 519 690 606 772 577 l 800 201 b 501 85 736 153 620 85 b 283 287 361 85 283 145 z "},"ĝ":{"ha":998,"x_min":0,"x_max":0,"o":"m 412 810 l 474 756 l 645 938 l 749 756 l 827 799 l 712 990 l 589 990 z m 123 -216 b 426 -290 177 -248 274 -290 b 860 13 656 -290 824 -197 l 975 674 l 898 674 l 876 602 b 598 692 817 643 726 692 b 181 281 362 692 181 547 b 481 -1 181 93 297 -1 b 783 99 619 -1 733 65 l 770 28 b 430 -204 735 -172 544 -204 b 159 -133 298 -204 218 -164 z m 283 287 b 596 606 283 476 394 606 b 853 519 690 606 772 577 l 800 201 b 501 85 736 153 620 85 b 283 287 361 85 283 145 z "},"ğ":{"ha":998,"x_min":0,"x_max":0,"o":"m 159 -133 l 123 -216 b 426 -290 177 -248 274 -290 b 860 13 656 -290 824 -197 l 975 674 l 898 674 l 876 602 b 598 692 817 643 726 692 b 181 281 362 692 181 547 b 481 -1 181 93 297 -1 b 783 99 619 -1 733 65 l 770 28 b 430 -204 735 -172 544 -204 b 159 -133 298 -204 218 -164 z m 283 287 b 596 606 283 476 394 606 b 853 519 690 606 772 577 l 800 201 b 501 85 736 153 620 85 b 283 287 361 85 283 145 z m 487 909 b 651 756 487 813 539 756 b 871 946 781 756 845 839 l 791 957 b 654 827 757 855 701 827 b 569 937 607 827 569 845 b 570 957 569 943 569 950 l 490 953 b 487 909 488 938 487 923 z "},"ġ":{"ha":998,"x_min":0,"x_max":0,"o":"m 617 910 l 596 783 l 692 783 l 713 910 z m 123 -216 b 426 -290 177 -248 274 -290 b 860 13 656 -290 824 -197 l 975 674 l 898 674 l 876 602 b 598 692 817 643 726 692 b 181 281 362 692 181 547 b 481 -1 181 93 297 -1 b 783 99 619 -1 733 65 l 770 28 b 430 -204 735 -172 544 -204 b 159 -133 298 -204 218 -164 z m 283 287 b 596 606 283 476 394 606 b 853 519 690 606 772 577 l 800 201 b 501 85 736 153 620 85 b 283 287 361 85 283 145 z "},"ģ":{"ha":998,"x_min":0,"x_max":0,"o":"m 692 1087 l 607 930 l 583 790 l 688 790 l 711 926 l 677 926 l 738 1067 z m 123 -216 b 426 -290 177 -248 274 -290 b 860 13 656 -290 824 -197 l 975 674 l 898 674 l 876 602 b 598 692 817 643 726 692 b 181 281 362 692 181 547 b 481 -1 181 93 297 -1 b 783 99 619 -1 733 65 l 770 28 b 430 -204 735 -172 544 -204 b 159 -133 298 -204 218 -164 z m 283 287 b 596 606 283 476 394 606 b 853 519 690 606 772 577 l 800 201 b 501 85 736 153 620 85 b 283 287 361 85 283 145 z "},"h":{"ha":952,"x_min":0,"x_max":0,"o":"m 308 982 l 139 0 l 233 0 l 322 513 b 649 606 352 529 478 606 b 810 474 753 606 810 571 b 804 417 810 458 808 438 l 732 0 l 826 0 l 901 428 b 907 496 905 453 907 475 b 656 692 907 649 794 692 b 337 599 485 692 365 619 l 403 982 z "},"ĥ":{"ha":952,"x_min":0,"x_max":0,"o":"m 428 1083 l 485 1022 l 687 1185 l 831 1022 l 894 1074 l 735 1243 l 642 1243 z m 139 0 l 233 0 l 322 513 b 649 606 352 529 478 606 b 810 474 753 606 810 571 b 804 417 810 458 808 438 l 732 0 l 826 0 l 901 428 b 907 496 905 453 907 475 b 656 692 907 649 794 692 b 337 599 485 692 365 619 l 403 982 l 308 982 z "},"i":{"ha":373,"x_min":0,"x_max":0,"o":"m 256 674 l 140 0 l 234 0 l 351 674 z m 274 783 l 369 783 l 390 910 l 296 910 z "},"ì":{"ha":373,"x_min":0,"x_max":0,"o":"m 136 951 l 320 756 l 381 806 l 220 1022 z m 140 0 l 234 0 l 351 674 l 256 674 z "},"í":{"ha":373,"x_min":0,"x_max":0,"o":"m 256 674 l 140 0 l 234 0 l 351 674 z m 270 810 l 321 756 l 572 951 l 507 1024 z "},"î":{"ha":373,"x_min":0,"x_max":0,"o":"m 119 810 l 182 756 l 353 938 l 457 756 l 535 799 l 419 990 l 297 990 z m 140 0 l 234 0 l 351 674 l 256 674 z "},"ï":{"ha":373,"x_min":0,"x_max":0,"o":"m 183 910 l 161 783 l 257 783 l 278 910 z m 140 0 l 234 0 l 351 674 l 256 674 z m 384 783 l 480 783 l 501 910 l 406 910 z "},"ĩ":{"ha":373,"x_min":0,"x_max":0,"o":"m 256 674 l 140 0 l 234 0 l 351 674 z m 93 812 l 154 778 b 246 849 176 813 207 849 b 324 808 274 849 297 828 b 426 770 351 789 382 770 b 588 895 485 770 535 793 l 524 928 b 429 848 493 873 465 848 b 354 888 402 848 380 867 b 252 928 327 908 297 928 b 93 812 187 928 134 894 z "},"ī":{"ha":373,"x_min":0,"x_max":0,"o":"m 256 674 l 140 0 l 234 0 l 351 674 z m 124 783 l 519 783 l 533 863 l 138 863 z "},"ĭ":{"ha":373,"x_min":0,"x_max":0,"o":"m 256 674 l 140 0 l 234 0 l 351 674 z m 162 909 b 326 756 162 813 214 756 b 546 946 456 756 520 839 l 466 957 b 329 827 432 855 376 827 b 244 937 282 827 244 845 b 245 957 244 943 244 950 l 165 953 b 162 909 163 938 162 923 z "},"į":{"ha":373,"x_min":0,"x_max":0,"o":"m 139 -290 b 274 -266 190 -290 233 -280 l 256 -201 b 147 -222 224 -213 198 -222 b 78 -156 102 -222 78 -203 b 234 0 78 -105 115 -53 l 351 674 l 256 674 l 144 23 b -4 -167 37 -34 -4 -94 b 139 -290 -4 -243 49 -290 z m 274 783 l 369 783 l 390 910 l 296 910 z "},"j":{"ha":435,"x_min":0,"x_max":0,"o":"m -25 -205 l -3 -289 b 295 0 172 -226 268 -156 l 412 674 l 317 674 l 203 10 b -25 -205 185 -91 109 -144 z m 336 783 l 431 783 l 452 910 l 358 910 z "},"ĵ":{"ha":411,"x_min":0,"x_max":0,"o":"m 178 10 b -49 -205 160 -91 85 -144 l -27 -289 b 271 0 147 -226 244 -156 l 388 674 l 293 674 z m 140 810 l 203 756 l 374 938 l 478 756 l 556 799 l 440 990 l 317 990 z "},"k":{"ha":895,"x_min":0,"x_max":0,"o":"m 557 353 l 772 -10 l 852 33 l 631 407 l 931 619 l 881 691 l 279 267 l 403 982 l 308 982 l 139 0 l 233 0 l 259 149 z "},"ķ":{"ha":895,"x_min":0,"x_max":0,"o":"m 428 -376 l 514 -219 l 538 -79 l 433 -79 l 410 -215 l 444 -215 l 383 -356 z m 139 0 l 233 0 l 259 149 l 557 353 l 772 -10 l 852 33 l 631 407 l 931 619 l 881 691 l 279 267 l 403 982 l 308 982 z "},"l":{"ha":372,"x_min":0,"x_max":0,"o":"m 308 982 l 139 0 l 233 0 l 403 982 z "},"ĺ":{"ha":372,"x_min":0,"x_max":0,"o":"m 320 1113 l 353 1040 l 663 1182 l 624 1265 z m 139 0 l 233 0 l 403 982 l 308 982 z "},"ļ":{"ha":372,"x_min":0,"x_max":0,"o":"m 120 -376 l 206 -219 l 230 -79 l 125 -79 l 101 -215 l 135 -215 l 75 -356 z m 139 0 l 233 0 l 403 982 l 308 982 z "},"ľ":{"ha":424,"x_min":0,"x_max":0,"o":"m 540 993 l 459 719 l 539 701 l 633 972 z m 139 0 l 233 0 l 403 982 l 308 982 z "},"m":{"ha":1476,"x_min":0,"x_max":0,"o":"m 256 674 l 139 0 l 233 0 l 322 514 b 641 606 351 530 486 606 b 787 490 738 606 787 570 b 783 445 787 476 785 461 l 706 0 l 800 0 l 890 517 b 1192 606 938 544 1058 606 b 1335 483 1293 606 1335 567 b 1329 417 1335 463 1333 442 l 1257 0 l 1351 0 l 1426 428 b 1433 503 1431 456 1433 481 b 1200 692 1433 649 1333 692 b 869 587 1063 692 935 627 b 649 692 832 667 756 692 b 337 599 508 692 395 634 l 336 674 z "},"n":{"ha":974,"x_min":0,"x_max":0,"o":"m 256 674 l 139 0 l 233 0 l 322 513 b 663 605 353 528 494 605 b 831 476 778 605 831 573 b 824 406 831 456 829 433 l 754 0 l 849 0 l 923 428 b 930 500 928 455 930 478 b 677 692 930 649 825 692 b 338 599 516 692 394 630 l 337 674 z "},"ñ":{"ha":974,"x_min":0,"x_max":0,"o":"m 256 674 l 139 0 l 233 0 l 322 513 b 663 605 353 528 494 605 b 831 476 778 605 831 573 b 824 406 831 456 829 433 l 754 0 l 849 0 l 923 428 b 930 500 928 455 930 478 b 677 692 930 649 825 692 b 338 599 516 692 394 630 l 337 674 z m 417 812 l 478 778 b 569 849 500 813 531 849 b 648 808 597 849 620 828 b 750 770 675 789 706 770 b 912 895 809 770 858 793 l 847 928 b 753 848 817 873 789 848 b 678 888 726 848 703 867 b 576 928 651 908 620 928 b 417 812 510 928 458 894 z "},"ń":{"ha":974,"x_min":0,"x_max":0,"o":"m 532 810 l 583 756 l 833 951 l 769 1024 z m 139 0 l 233 0 l 322 513 b 663 605 353 528 494 605 b 831 476 778 605 831 573 b 824 406 831 456 829 433 l 754 0 l 849 0 l 923 428 b 930 500 928 455 930 478 b 677 692 930 649 825 692 b 338 599 516 692 394 630 l 337 674 l 256 674 z "},"ņ":{"ha":974,"x_min":0,"x_max":0,"o":"m 444 -376 l 529 -219 l 553 -79 l 449 -79 l 425 -215 l 459 -215 l 399 -356 z m 139 0 l 233 0 l 322 513 b 663 605 353 528 494 605 b 831 476 778 605 831 573 b 824 406 831 456 829 433 l 754 0 l 849 0 l 923 428 b 930 500 928 455 930 478 b 677 692 930 649 825 692 b 338 599 516 692 394 630 l 337 674 l 256 674 z "},"ň":{"ha":974,"x_min":0,"x_max":0,"o":"m 472 959 l 587 769 l 710 769 l 885 949 l 824 1004 l 653 822 l 549 1004 z m 139 0 l 233 0 l 322 513 b 663 605 353 528 494 605 b 831 476 778 605 831 573 b 824 406 831 456 829 433 l 754 0 l 849 0 l 923 428 b 930 500 928 455 930 478 b 677 692 930 649 825 692 b 338 599 516 692 394 630 l 337 674 l 256 674 z "},"o":{"ha":1008,"x_min":0,"x_max":0,"o":"m 610 694 b 153 288 343 694 153 533 b 515 -16 153 99 297 -16 b 970 388 786 -16 970 142 b 610 694 970 572 827 694 z m 255 303 b 602 608 255 485 390 608 b 869 375 771 608 869 513 b 522 70 869 194 737 70 b 255 303 347 70 255 162 z "},"ò":{"ha":1008,"x_min":0,"x_max":0,"o":"m 476 951 l 660 756 l 720 806 l 560 1022 z m 153 288 b 515 -16 153 99 297 -16 b 970 388 786 -16 970 142 b 610 694 970 572 827 694 b 153 288 343 694 153 533 z m 255 303 b 602 608 255 485 390 608 b 869 375 771 608 869 513 b 522 70 869 194 737 70 b 255 303 347 70 255 162 z "},"ó":{"ha":1008,"x_min":0,"x_max":0,"o":"m 561 810 l 612 756 l 863 951 l 798 1024 z m 153 288 b 515 -16 153 99 297 -16 b 970 388 786 -16 970 142 b 610 694 970 572 827 694 b 153 288 343 694 153 533 z m 255 303 b 602 608 255 485 390 608 b 869 375 771 608 869 513 b 522 70 869 194 737 70 b 255 303 347 70 255 162 z "},"ô":{"ha":1008,"x_min":0,"x_max":0,"o":"m 427 810 l 490 756 l 660 938 l 765 756 l 842 799 l 727 990 l 604 990 z m 153 288 b 515 -16 153 99 297 -16 b 970 388 786 -16 970 142 b 610 694 970 572 827 694 b 153 288 343 694 153 533 z m 255 303 b 602 608 255 485 390 608 b 869 375 771 608 869 513 b 522 70 869 194 737 70 b 255 303 347 70 255 162 z "},"õ":{"ha":1008,"x_min":0,"x_max":0,"o":"m 610 694 b 153 288 343 694 153 533 b 515 -16 153 99 297 -16 b 970 388 786 -16 970 142 b 610 694 970 572 827 694 z m 255 303 b 602 608 255 485 390 608 b 869 375 771 608 869 513 b 522 70 869 194 737 70 b 255 303 347 70 255 162 z m 393 812 l 454 778 b 546 849 476 813 507 849 b 624 808 574 849 597 828 b 726 770 651 789 682 770 b 888 895 785 770 835 793 l 824 928 b 729 848 793 873 765 848 b 654 888 702 848 680 867 b 552 928 627 908 597 928 b 393 812 487 928 434 894 z "},"ö":{"ha":1008,"x_min":0,"x_max":0,"o":"m 489 910 l 467 783 l 563 783 l 585 910 z m 153 288 b 515 -16 153 99 297 -16 b 970 388 786 -16 970 142 b 610 694 970 572 827 694 b 153 288 343 694 153 533 z m 255 303 b 602 608 255 485 390 608 b 869 375 771 608 869 513 b 522 70 869 194 737 70 b 255 303 347 70 255 162 z m 690 783 l 786 783 l 808 910 l 712 910 z "},"ō":{"ha":1008,"x_min":0,"x_max":0,"o":"m 610 694 b 153 288 343 694 153 533 b 515 -16 153 99 297 -16 b 970 388 786 -16 970 142 b 610 694 970 572 827 694 z m 255 303 b 602 608 255 485 390 608 b 869 375 771 608 869 513 b 522 70 869 194 737 70 b 255 303 347 70 255 162 z m 430 783 l 826 783 l 840 863 l 444 863 z "},"ŏ":{"ha":1008,"x_min":0,"x_max":0,"o":"m 610 694 b 153 288 343 694 153 533 b 515 -16 153 99 297 -16 b 970 388 786 -16 970 142 b 610 694 970 572 827 694 z m 255 303 b 602 608 255 485 390 608 b 869 375 771 608 869 513 b 522 70 869 194 737 70 b 255 303 347 70 255 162 z m 464 909 b 628 756 464 813 516 756 b 848 946 758 756 822 839 l 768 957 b 631 827 734 855 678 827 b 547 937 584 827 547 845 b 547 957 547 943 547 950 l 467 953 b 464 909 465 938 464 923 z "},"ő":{"ha":1008,"x_min":0,"x_max":0,"o":"m 433 801 l 490 756 l 685 953 l 610 1015 z m 153 288 b 515 -16 153 99 297 -16 b 970 388 786 -16 970 142 b 610 694 970 572 827 694 b 153 288 343 694 153 533 z m 255 303 b 602 608 255 485 390 608 b 869 375 771 608 869 513 b 522 70 869 194 737 70 b 255 303 347 70 255 162 z m 705 813 l 758 763 l 973 941 l 904 1011 z "},"p":{"ha":967,"x_min":0,"x_max":0,"o":"m 256 674 l 92 -274 l 186 -274 l 247 74 b 519 -16 292 38 385 -16 b 930 397 764 -16 930 132 b 634 692 930 591 810 692 b 335 597 494 692 383 629 l 337 674 z m 261 159 l 320 502 b 608 606 383 549 491 606 b 828 384 749 606 828 530 b 528 70 828 185 702 70 b 261 159 427 70 347 101 z "},"q":{"ha":969,"x_min":0,"x_max":0,"o":"m 452 -16 b 749 81 588 -16 699 47 l 688 -274 l 783 -274 l 947 674 l 871 674 l 848 602 b 569 692 788 643 697 692 b 153 274 333 692 153 544 b 452 -16 153 81 268 -16 z m 254 280 b 567 606 254 474 365 606 b 826 522 661 606 744 577 l 767 180 b 473 70 702 133 589 70 b 254 280 333 70 254 133 z "},"r":{"ha":619,"x_min":0,"x_max":0,"o":"m 140 0 l 235 0 l 320 489 b 688 600 443 549 572 587 l 674 696 b 333 573 565 687 428 634 l 338 674 l 256 674 z "},"ŕ":{"ha":619,"x_min":0,"x_max":0,"o":"m 140 0 l 235 0 l 320 489 b 688 600 443 549 572 587 l 674 696 b 333 573 565 687 428 634 l 338 674 l 256 674 z m 362 810 l 413 756 l 663 951 l 599 1024 z "},"ŗ":{"ha":619,"x_min":0,"x_max":0,"o":"m 118 -376 l 203 -219 l 228 -79 l 123 -79 l 99 -215 l 133 -215 l 73 -356 z m 140 0 l 235 0 l 320 489 b 688 600 443 549 572 587 l 674 696 b 333 573 565 687 428 634 l 338 674 l 256 674 z "},"ř":{"ha":619,"x_min":0,"x_max":0,"o":"m 140 0 l 235 0 l 320 489 b 688 600 443 549 572 587 l 674 696 b 333 573 565 687 428 634 l 338 674 l 256 674 z m 303 959 l 418 769 l 541 769 l 717 949 l 656 1004 l 484 822 l 381 1004 z "},"s":{"ha":846,"x_min":0,"x_max":0,"o":"m 126 138 l 89 58 b 429 -16 148 27 257 -16 b 799 221 642 -16 799 47 b 517 394 799 372 654 387 b 278 487 394 401 278 402 b 524 615 278 576 377 615 b 778 567 632 615 705 592 l 810 643 b 531 694 749 669 647 694 b 185 479 371 694 185 648 b 472 314 185 330 333 320 b 710 207 595 308 710 303 b 436 66 710 124 619 66 b 126 138 300 66 203 100 z "},"ś":{"ha":846,"x_min":0,"x_max":0,"o":"m 126 138 l 89 58 b 429 -16 148 27 257 -16 b 799 221 642 -16 799 47 b 517 394 799 372 654 387 b 278 487 394 401 278 402 b 524 615 278 576 377 615 b 778 567 632 615 705 592 l 810 643 b 531 694 749 669 647 694 b 185 479 371 694 185 648 b 472 314 185 330 333 320 b 710 207 595 308 710 303 b 436 66 710 124 619 66 b 126 138 300 66 203 100 z m 451 810 l 502 756 l 753 951 l 688 1024 z "},"ŝ":{"ha":846,"x_min":0,"x_max":0,"o":"m 126 138 l 89 58 b 429 -16 148 27 257 -16 b 799 221 642 -16 799 47 b 517 394 799 372 654 387 b 278 487 394 401 278 402 b 524 615 278 576 377 615 b 778 567 632 615 705 592 l 810 643 b 531 694 749 669 647 694 b 185 479 371 694 185 648 b 472 314 185 330 333 320 b 710 207 595 308 710 303 b 436 66 710 124 619 66 b 126 138 300 66 203 100 z m 338 808 l 400 753 l 571 935 l 675 753 l 753 797 l 638 988 l 515 988 z "},"ş":{"ha":846,"x_min":0,"x_max":0,"o":"m 126 138 l 89 58 b 393 -15 144 29 242 -10 b 462 -123 447 -47 462 -88 b 351 -222 462 -181 423 -222 b 235 -204 301 -222 260 -212 l 212 -270 b 339 -290 238 -280 283 -290 b 541 -123 469 -290 541 -229 b 504 -13 541 -81 531 -44 b 799 221 678 1 799 68 b 517 394 799 372 654 387 b 278 487 394 401 278 402 b 524 615 278 576 377 615 b 778 567 632 615 705 592 l 810 643 b 531 694 749 669 647 694 b 185 479 371 694 185 648 b 472 314 185 330 333 320 b 710 207 595 308 710 303 b 436 66 710 124 619 66 b 126 138 300 66 203 100 z "},"š":{"ha":846,"x_min":0,"x_max":0,"o":"m 126 138 l 89 58 b 429 -16 148 27 257 -16 b 799 221 642 -16 799 47 b 517 394 799 372 654 387 b 278 487 394 401 278 402 b 524 615 278 576 377 615 b 778 567 632 615 705 592 l 810 643 b 531 694 749 669 647 694 b 185 479 371 694 185 648 b 472 314 185 330 333 320 b 710 207 595 308 710 303 b 436 66 710 124 619 66 b 126 138 300 66 203 100 z m 364 959 l 478 769 l 601 769 l 777 949 l 716 1004 l 544 822 l 441 1004 z "},"ș":{"ha":846,"x_min":0,"x_max":0,"o":"m 382 -376 l 467 -219 l 492 -79 l 387 -79 l 363 -215 l 397 -215 l 337 -356 z m 89 58 b 429 -16 148 27 257 -16 b 799 221 642 -16 799 47 b 517 394 799 372 654 387 b 278 487 394 401 278 402 b 524 615 278 576 377 615 b 778 567 632 615 705 592 l 810 643 b 531 694 749 669 647 694 b 185 479 371 694 185 648 b 472 314 185 330 333 320 b 710 207 595 308 710 303 b 436 66 710 124 619 66 b 126 138 300 66 203 100 z "},"t":{"ha":742,"x_min":0,"x_max":0,"o":"m 433 -16 b 669 21 545 -16 618 3 l 653 105 b 457 69 606 85 541 69 b 338 148 374 69 338 88 b 342 189 338 160 340 174 l 413 594 l 747 594 l 760 674 l 426 674 l 458 856 l 363 856 l 332 674 l 183 674 l 169 594 l 318 594 l 245 174 b 240 125 242 156 240 140 b 433 -16 240 8 331 -16 z "},"ţ":{"ha":742,"x_min":0,"x_max":0,"o":"m 340 -383 l 426 -226 l 450 -86 l 345 -86 l 322 -222 l 356 -222 l 295 -362 z m 169 594 l 318 594 l 245 174 b 240 125 242 156 240 140 b 433 -16 240 8 331 -16 b 669 21 545 -16 618 3 l 653 105 b 457 69 606 85 541 69 b 338 148 374 69 338 88 b 342 189 338 160 340 174 l 413 594 l 747 594 l 760 674 l 426 674 l 458 856 l 363 856 l 332 674 l 183 674 z "},"ť":{"ha":742,"x_min":0,"x_max":0,"o":"m 658 1088 l 576 814 l 656 796 l 750 1067 z m 169 594 l 318 594 l 245 174 b 240 125 242 156 240 140 b 433 -16 240 8 331 -16 b 669 21 545 -16 618 3 l 653 105 b 457 69 606 85 541 69 b 338 148 374 69 338 88 b 342 189 338 160 340 174 l 413 594 l 747 594 l 760 674 l 426 674 l 458 856 l 363 856 l 332 674 l 183 674 z "},"ț":{"ha":742,"x_min":0,"x_max":0,"o":"m 351 -376 l 436 -219 l 460 -79 l 356 -79 l 332 -215 l 366 -215 l 306 -356 z m 169 594 l 318 594 l 245 174 b 240 125 242 156 240 140 b 433 -16 240 8 331 -16 b 669 21 545 -16 618 3 l 653 105 b 457 69 606 85 541 69 b 338 148 374 69 338 88 b 342 189 338 160 340 174 l 413 594 l 747 594 l 760 674 l 426 674 l 458 856 l 363 856 l 332 674 l 183 674 z "},"u":{"ha":983,"x_min":0,"x_max":0,"o":"m 176 293 b 167 199 169 258 167 226 b 419 -16 167 31 271 -16 b 773 87 571 -16 713 51 l 769 0 l 844 0 l 960 674 l 866 674 l 780 176 b 435 70 748 156 588 70 b 265 220 318 70 265 106 b 277 334 265 252 269 290 l 336 674 l 242 674 z "},"ù":{"ha":983,"x_min":0,"x_max":0,"o":"m 443 951 l 627 756 l 688 806 l 527 1022 z m 167 199 b 419 -16 167 31 271 -16 b 773 87 571 -16 713 51 l 769 0 l 844 0 l 960 674 l 866 674 l 780 176 b 435 70 748 156 588 70 b 265 220 318 70 265 106 b 277 334 265 252 269 290 l 336 674 l 242 674 l 176 293 b 167 199 169 258 167 226 z "},"ú":{"ha":983,"x_min":0,"x_max":0,"o":"m 176 293 b 167 199 169 258 167 226 b 419 -16 167 31 271 -16 b 773 87 571 -16 713 51 l 769 0 l 844 0 l 960 674 l 866 674 l 780 176 b 435 70 748 156 588 70 b 265 220 318 70 265 106 b 277 334 265 252 269 290 l 336 674 l 242 674 z m 556 810 l 606 756 l 857 951 l 792 1024 z "},"û":{"ha":983,"x_min":0,"x_max":0,"o":"m 416 810 l 478 756 l 649 938 l 753 756 l 831 799 l 716 990 l 593 990 z m 167 199 b 419 -16 167 31 271 -16 b 773 87 571 -16 713 51 l 769 0 l 844 0 l 960 674 l 866 674 l 780 176 b 435 70 748 156 588 70 b 265 220 318 70 265 106 b 277 334 265 252 269 290 l 336 674 l 242 674 l 176 293 b 167 199 169 258 167 226 z "},"ü":{"ha":983,"x_min":0,"x_max":0,"o":"m 479 910 l 458 783 l 553 783 l 575 910 z m 167 199 b 419 -16 167 31 271 -16 b 773 87 571 -16 713 51 l 769 0 l 844 0 l 960 674 l 866 674 l 780 176 b 435 70 748 156 588 70 b 265 220 318 70 265 106 b 277 334 265 252 269 290 l 336 674 l 242 674 l 176 293 b 167 199 169 258 167 226 z m 681 783 l 776 783 l 798 910 l 702 910 z "},"ũ":{"ha":983,"x_min":0,"x_max":0,"o":"m 176 293 b 167 199 169 258 167 226 b 419 -16 167 31 271 -16 b 773 87 571 -16 713 51 l 769 0 l 844 0 l 960 674 l 866 674 l 780 176 b 435 70 748 156 588 70 b 265 220 318 70 265 106 b 277 334 265 252 269 290 l 336 674 l 242 674 z m 392 812 l 453 778 b 544 849 475 813 506 849 b 623 808 572 849 595 828 b 725 770 650 789 681 770 b 887 895 784 770 833 793 l 822 928 b 728 848 792 873 764 848 b 653 888 701 848 678 867 b 551 928 626 908 595 928 b 392 812 485 928 433 894 z "},"ū":{"ha":983,"x_min":0,"x_max":0,"o":"m 176 293 b 167 199 169 258 167 226 b 419 -16 167 31 271 -16 b 773 87 571 -16 713 51 l 769 0 l 844 0 l 960 674 l 866 674 l 780 176 b 435 70 748 156 588 70 b 265 220 318 70 265 106 b 277 334 265 252 269 290 l 336 674 l 242 674 z m 419 783 l 815 783 l 828 863 l 433 863 z "},"ŭ":{"ha":983,"x_min":0,"x_max":0,"o":"m 176 293 b 167 199 169 258 167 226 b 419 -16 167 31 271 -16 b 773 87 571 -16 713 51 l 769 0 l 844 0 l 960 674 l 866 674 l 780 176 b 435 70 748 156 588 70 b 265 220 318 70 265 106 b 277 334 265 252 269 290 l 336 674 l 242 674 z m 456 909 b 620 756 456 813 508 756 b 840 946 750 756 815 839 l 760 957 b 624 827 726 855 670 827 b 539 937 576 827 539 845 b 540 957 539 943 539 950 l 460 953 b 456 909 458 938 456 923 z "},"ů":{"ha":983,"x_min":0,"x_max":0,"o":"m 176 293 b 167 199 169 258 167 226 b 419 -16 167 31 271 -16 b 773 87 571 -16 713 51 l 769 0 l 844 0 l 960 674 l 866 674 l 780 176 b 435 70 748 156 588 70 b 265 220 318 70 265 106 b 277 334 265 252 269 290 l 336 674 l 242 674 z m 487 874 b 622 756 487 805 531 756 b 791 901 715 756 791 819 b 656 1021 790 975 740 1021 b 487 874 558 1021 487 951 z m 558 881 b 652 963 558 924 593 963 b 719 897 701 963 719 932 b 626 815 719 851 682 815 b 558 881 575 815 558 845 z "},"ű":{"ha":983,"x_min":0,"x_max":0,"o":"m 176 293 b 167 199 169 258 167 226 b 419 -16 167 31 271 -16 b 773 87 571 -16 713 51 l 769 0 l 844 0 l 960 674 l 866 674 l 780 176 b 435 70 748 156 588 70 b 265 220 318 70 265 106 b 277 334 265 252 269 290 l 336 674 l 242 674 z m 433 801 l 490 756 l 685 953 l 610 1015 z m 705 813 l 758 763 l 973 941 l 904 1011 z "},"ų":{"ha":983,"x_min":0,"x_max":0,"o":"m 844 0 l 960 674 l 866 674 l 780 176 b 435 70 748 156 588 70 b 265 220 318 70 265 106 b 277 334 265 252 269 290 l 336 674 l 242 674 l 176 293 b 167 199 169 258 167 226 b 419 -16 167 31 271 -16 b 773 87 571 -16 713 51 l 771 29 b 606 -167 651 -31 606 -91 b 749 -290 606 -243 659 -290 b 884 -266 800 -290 843 -280 l 866 -201 b 757 -222 833 -213 808 -222 b 688 -156 713 -222 688 -203 b 844 0 688 -105 724 -53 z "},"v":{"ha":801,"x_min":0,"x_max":0,"o":"m 141 667 l 343 0 l 472 0 l 890 647 l 816 692 l 416 68 l 233 692 z "},"w":{"ha":1219,"x_min":0,"x_max":0,"o":"m 146 672 l 296 0 l 416 0 l 722 608 l 819 0 l 942 0 l 1298 657 l 1224 694 l 888 69 l 794 674 l 660 674 l 363 81 l 233 689 z "},"ŵ":{"ha":1219,"x_min":0,"x_max":0,"o":"m 526 810 l 589 756 l 760 938 l 864 756 l 942 799 l 826 990 l 703 990 z m 146 672 l 296 0 l 416 0 l 722 608 l 819 0 l 942 0 l 1298 657 l 1224 694 l 888 69 l 794 674 l 660 674 l 363 81 l 233 689 z "},"ẁ":{"ha":1219,"x_min":0,"x_max":0,"o":"m 558 951 l 742 756 l 802 806 l 642 1022 z m 146 672 l 296 0 l 416 0 l 722 608 l 819 0 l 942 0 l 1298 657 l 1224 694 l 888 69 l 794 674 l 660 674 l 363 81 l 233 689 z "},"ẃ":{"ha":1219,"x_min":0,"x_max":0,"o":"m 677 810 l 728 756 l 978 951 l 914 1024 z m 146 672 l 296 0 l 416 0 l 722 608 l 819 0 l 942 0 l 1298 657 l 1224 694 l 888 69 l 794 674 l 660 674 l 363 81 l 233 689 z "},"ẅ":{"ha":1219,"x_min":0,"x_max":0,"o":"m 609 910 l 588 783 l 683 783 l 705 910 z m 146 672 l 296 0 l 416 0 l 722 608 l 819 0 l 942 0 l 1298 657 l 1224 694 l 888 69 l 794 674 l 660 674 l 363 81 l 233 689 z m 810 783 l 906 783 l 928 910 l 832 910 z "},"x":{"ha":822,"x_min":0,"x_max":0,"o":"m 53 43 l 110 -19 l 467 294 l 729 -16 l 794 40 l 531 349 l 862 631 l 809 693 l 481 408 l 251 685 l 184 631 l 415 357 z "},"y":{"ha":821,"x_min":0,"x_max":0,"o":"m 291 -293 l 905 637 l 828 686 l 436 85 l 245 690 l 153 661 l 375 -7 l 217 -240 z "},"ý":{"ha":821,"x_min":0,"x_max":0,"o":"m 291 -293 l 905 637 l 828 686 l 436 85 l 245 690 l 153 661 l 375 -7 l 217 -240 z m 486 810 l 537 756 l 788 951 l 723 1024 z "},"ÿ":{"ha":821,"x_min":0,"x_max":0,"o":"m 291 -293 l 905 637 l 828 686 l 436 85 l 245 690 l 153 661 l 375 -7 l 217 -240 z m 385 783 l 481 783 l 502 910 l 406 910 z m 608 783 l 703 783 l 725 910 l 629 910 z "},"ŷ":{"ha":821,"x_min":0,"x_max":0,"o":"m 291 -293 l 905 637 l 828 686 l 436 85 l 245 690 l 153 661 l 375 -7 l 217 -240 z m 330 810 l 392 756 l 563 938 l 667 756 l 745 799 l 630 990 l 507 990 z "},"z":{"ha":851,"x_min":0,"x_max":0,"o":"m 101 105 l 83 0 l 788 0 l 802 81 l 198 81 l 857 576 l 872 674 l 228 674 l 215 594 l 751 594 z "},"ź":{"ha":851,"x_min":0,"x_max":0,"o":"m 101 105 l 83 0 l 788 0 l 802 81 l 198 81 l 857 576 l 872 674 l 228 674 l 215 594 l 751 594 z m 467 810 l 518 756 l 769 951 l 704 1024 z "},"ż":{"ha":851,"x_min":0,"x_max":0,"o":"m 539 910 l 517 783 l 613 783 l 635 910 z m 83 0 l 788 0 l 802 81 l 198 81 l 857 576 l 872 674 l 228 674 l 215 594 l 751 594 l 101 105 z "},"ž":{"ha":851,"x_min":0,"x_max":0,"o":"m 101 105 l 83 0 l 788 0 l 802 81 l 198 81 l 857 576 l 872 674 l 228 674 l 215 594 l 751 594 z m 394 959 l 508 769 l 631 769 l 807 949 l 746 1004 l 574 822 l 471 1004 z "},"ª":{"ha":636,"x_min":0,"x_max":0,"o":"m 353 437 b 558 503 437 437 517 471 l 558 446 l 623 446 l 660 662 b 665 717 664 682 665 700 b 483 869 665 819 604 869 b 299 841 409 869 338 855 l 312 779 b 474 804 344 790 401 804 b 589 715 560 804 589 777 b 588 697 589 710 589 703 b 469 708 561 703 519 708 b 198 551 304 708 198 656 b 353 437 198 458 278 437 z m 281 555 b 482 644 281 610 342 644 b 579 637 528 644 558 641 l 568 572 b 363 504 533 548 447 504 b 281 555 302 504 281 519 z "},"º":{"ha":656,"x_min":0,"x_max":0,"o":"m 414 437 b 699 678 560 438 699 520 b 466 869 699 804 594 869 b 181 626 313 869 181 781 b 414 437 181 494 291 437 z m 269 633 b 458 800 269 740 352 800 b 611 673 551 800 611 756 b 422 507 611 568 524 507 b 269 633 327 507 269 548 z "},"ß":{"ha":972,"x_min":0,"x_max":0,"o":"m 383 109 l 351 26 b 572 -17 401 2 476 -17 b 915 308 760 -17 915 74 b 770 511 915 453 847 496 b 930 756 869 546 930 624 b 645 982 930 915 792 982 b 258 693 463 982 295 908 l 139 0 l 235 0 l 352 678 b 635 896 379 831 482 896 b 827 749 756 896 827 847 b 594 533 827 612 725 533 l 516 533 l 502 453 l 601 453 b 813 301 759 453 813 425 b 583 69 813 153 736 69 b 383 109 493 69 434 88 z "},"æ":{"ha":1483,"x_min":0,"x_max":0,"o":"m 379 -16 b 750 110 530 -16 665 51 b 1022 -16 801 26 899 -16 b 1333 67 1148 -16 1238 19 l 1289 141 b 1035 67 1221 107 1133 67 b 803 305 866 67 778 156 l 1378 305 b 1402 426 1392 340 1402 377 b 1131 692 1402 577 1310 692 b 803 546 996 692 878 640 b 569 692 774 649 694 692 b 294 637 471 692 366 665 l 316 558 b 567 610 367 580 465 610 b 729 446 680 610 729 561 b 728 415 729 436 728 426 b 609 419 687 418 647 419 b 147 157 335 419 147 344 b 379 -16 147 24 257 -16 z m 252 170 b 620 347 252 289 378 347 b 717 344 657 347 687 346 b 712 267 713 319 712 294 b 721 183 712 237 715 208 b 399 65 635 123 505 65 b 252 170 292 65 252 97 z m 814 381 b 1122 610 851 528 974 610 b 1310 428 1245 610 1310 533 b 1306 381 1310 414 1308 391 z "},"ǽ":{"ha":1483,"x_min":0,"x_max":0,"o":"m 379 -16 b 750 110 530 -16 665 51 b 1022 -16 801 26 899 -16 b 1333 67 1148 -16 1238 19 l 1289 141 b 1035 67 1221 107 1133 67 b 803 305 866 67 778 156 l 1378 305 b 1402 426 1392 340 1402 377 b 1131 692 1402 577 1310 692 b 803 546 996 692 878 640 b 569 692 774 649 694 692 b 294 637 471 692 366 665 l 316 558 b 567 610 367 580 465 610 b 729 446 680 610 729 561 b 728 415 729 436 728 426 b 609 419 687 418 647 419 b 147 157 335 419 147 344 b 379 -16 147 24 257 -16 z m 252 170 b 620 347 252 289 378 347 b 717 344 657 347 687 346 b 712 267 713 319 712 294 b 721 183 712 237 715 208 b 399 65 635 123 505 65 b 252 170 292 65 252 97 z m 783 810 l 834 756 l 1085 951 l 1020 1024 z m 814 381 b 1122 610 851 528 974 610 b 1310 428 1245 610 1310 533 b 1306 381 1310 414 1308 391 z "},"ð":{"ha":1044,"x_min":0,"x_max":0,"o":"m 491 -16 b 990 481 777 -16 990 168 b 786 878 990 660 910 794 l 861 974 l 798 1018 l 719 917 b 485 980 649 951 569 972 l 459 897 b 660 843 536 887 603 869 l 589 751 l 653 708 l 728 805 b 891 483 831 734 885 626 b 571 649 830 593 693 649 b 153 276 358 649 153 515 b 491 -16 153 81 317 -16 z m 255 285 b 567 565 255 447 385 565 b 876 342 689 565 833 490 b 502 69 824 144 643 69 b 255 285 369 69 255 140 z "},"ø":{"ha":1008,"x_min":0,"x_max":0,"o":"m 95 49 l 143 -14 l 251 65 b 515 -16 315 13 405 -16 b 970 388 786 -16 970 142 b 921 556 970 452 953 509 l 1018 627 l 970 692 l 865 615 b 610 694 803 665 715 694 b 153 288 343 694 153 533 b 199 125 153 225 169 170 z m 255 303 b 602 608 255 485 390 608 b 784 556 678 608 739 589 l 282 186 b 255 303 264 219 255 258 z m 333 125 l 838 495 b 869 375 859 461 869 421 b 522 70 869 194 737 70 b 333 125 441 70 377 90 z "},"ǿ":{"ha":1008,"x_min":0,"x_max":0,"o":"m 95 49 l 143 -14 l 251 65 b 515 -16 315 13 405 -16 b 970 388 786 -16 970 142 b 921 556 970 452 953 509 l 1018 627 l 970 692 l 865 615 b 610 694 803 665 715 694 b 153 288 343 694 153 533 b 199 125 153 225 169 170 z m 255 303 b 602 608 255 485 390 608 b 784 556 678 608 739 589 l 282 186 b 255 303 264 219 255 258 z m 333 125 l 838 495 b 869 375 859 461 869 421 b 522 70 869 194 737 70 b 333 125 441 70 377 90 z m 558 810 l 608 756 l 859 951 l 794 1024 z "},"þ":{"ha":969,"x_min":0,"x_max":0,"o":"m 308 982 l 92 -274 l 186 -274 l 247 74 b 519 -16 292 39 381 -16 b 929 397 762 -16 929 130 b 632 692 929 591 808 692 b 337 599 491 692 386 633 l 403 982 z m 263 167 l 318 492 b 607 605 381 542 490 605 b 826 384 748 605 826 530 b 527 70 826 185 701 70 b 263 167 424 70 345 103 z "},"đ":{"ha":967,"x_min":0,"x_max":0,"o":"m 722 866 l 709 787 l 869 787 l 839 610 b 569 692 779 649 691 692 b 153 274 333 692 153 544 b 452 -16 153 81 268 -16 b 756 85 593 -16 708 51 l 751 0 l 828 0 l 964 787 l 1105 787 l 1118 866 l 977 866 l 997 982 l 903 982 l 883 866 z m 254 280 b 567 606 254 474 365 606 b 823 520 660 606 742 577 l 765 182 b 473 69 701 135 588 69 b 254 280 333 69 254 132 z "},"ħ":{"ha":952,"x_min":0,"x_max":0,"o":"m 194 866 l 181 787 l 275 787 l 139 0 l 233 0 l 322 513 b 649 606 352 529 478 606 b 810 474 753 606 810 571 b 804 417 810 458 808 438 l 732 0 l 826 0 l 901 428 b 907 496 905 453 907 475 b 656 692 907 649 794 692 b 337 599 485 692 365 619 l 369 787 l 576 787 l 590 866 l 383 866 l 403 982 l 308 982 l 288 866 z "},"ı":{"ha":373,"x_min":0,"x_max":0,"o":"m 256 674 l 140 0 l 234 0 l 351 674 z "},"ĳ":{"ha":924,"x_min":0,"x_max":0,"o":"m 324 674 l 207 0 l 301 0 l 418 674 z m 342 783 l 436 783 l 458 910 l 363 910 z m 463 -205 l 485 -289 b 783 0 660 -226 756 -156 l 900 674 l 806 674 l 691 10 b 463 -205 673 -91 597 -144 z m 824 783 l 919 783 l 940 910 l 846 910 z "},"ĸ":{"ha":895,"x_min":0,"x_max":0,"o":"m 557 353 l 772 -10 l 852 33 l 631 407 l 935 622 l 881 691 l 279 265 l 350 674 l 256 674 l 139 0 l 233 0 l 259 149 z "},"ŀ":{"ha":372,"x_min":0,"x_max":0,"o":"m 308 982 l 139 0 l 233 0 l 403 982 z m 388 435 l 503 435 l 527 572 l 412 572 z "},"ł":{"ha":428,"x_min":0,"x_max":0,"o":"m 50 394 l 81 311 l 215 369 l 151 0 l 245 0 l 317 415 l 534 510 l 503 592 l 335 518 l 415 982 l 320 982 l 233 474 z "},"ŉ":{"ha":974,"x_min":0,"x_max":0,"o":"m 117 728 l 203 885 l 227 1024 l 122 1024 l 99 889 l 133 889 l 72 748 z m 139 0 l 233 0 l 322 513 b 663 605 353 528 494 605 b 831 476 778 605 831 573 b 824 406 831 456 829 433 l 754 0 l 849 0 l 923 428 b 930 500 928 455 930 478 b 677 692 930 649 825 692 b 338 599 516 692 394 630 l 337 674 l 256 674 z "},"ŋ":{"ha":989,"x_min":0,"x_max":0,"o":"m 824 406 l 756 10 b 528 -205 738 -91 663 -144 l 551 -289 b 849 0 725 -226 822 -156 l 923 428 b 930 500 928 455 930 478 b 677 692 930 649 825 692 b 338 599 516 692 394 630 l 337 674 l 256 674 l 139 0 l 233 0 l 322 513 b 663 605 353 528 494 605 b 831 476 778 605 831 573 b 824 406 831 456 829 433 z "},"œ":{"ha":1585,"x_min":0,"x_max":0,"o":"m 474 -16 b 831 156 623 -16 754 48 b 1126 -16 869 42 975 -16 b 1448 70 1255 -16 1353 17 l 1406 145 b 1135 69 1332 107 1265 69 b 903 296 982 69 903 148 l 1491 296 b 1517 424 1503 324 1517 360 b 1233 692 1517 571 1428 692 b 881 513 1079 692 953 627 b 580 694 835 629 722 694 b 154 285 365 694 154 540 b 474 -16 154 88 292 -16 z m 258 292 b 574 608 258 479 398 608 b 813 383 708 608 813 522 b 488 71 813 199 649 71 b 258 292 342 71 258 152 z m 913 374 b 1228 606 948 524 1074 606 b 1418 424 1353 606 1418 535 b 1414 374 1418 408 1417 392 z "},"ŧ":{"ha":742,"x_min":0,"x_max":0,"o":"m 144 403 l 131 323 l 271 323 l 245 174 b 240 125 242 156 240 140 b 433 -16 240 8 331 -16 b 669 21 545 -16 618 3 l 653 105 b 457 69 606 85 541 69 b 338 148 374 69 338 88 b 342 189 338 160 340 174 l 365 323 l 708 323 l 722 403 l 380 403 l 413 594 l 747 594 l 760 674 l 426 674 l 458 856 l 363 856 l 332 674 l 183 674 l 169 594 l 318 594 l 285 403 z "},"ſ":{"ha":583,"x_min":0,"x_max":0,"o":"m 315 594 l 212 0 l 306 0 l 440 774 b 664 913 459 889 523 913 b 840 893 737 913 780 906 l 866 973 b 672 999 866 973 764 999 b 348 789 490 999 376 957 l 328 674 l 193 674 l 179 594 z "},"ȷ":{"ha":411,"x_min":0,"x_max":0,"o":"m 178 10 b -49 -205 160 -91 85 -144 l -27 -289 b 271 0 147 -226 244 -156 l 388 674 l 293 674 z "},"π":{"ha":1155,"x_min":0,"x_max":0,"o":"m 775 174 b 769 115 772 152 769 133 b 938 -15 769 12 833 -15 b 1092 21 1004 -15 1092 21 l 1084 97 b 956 67 1084 97 1022 67 b 867 141 897 67 867 83 b 872 190 867 154 869 171 l 943 598 l 1167 598 l 1180 675 l 186 674 l 173 597 l 373 597 l 269 0 l 365 0 l 469 597 l 849 598 z "},"¼":{"ha":1791,"x_min":0,"x_max":0,"o":"m 1500 97 l 1483 -2 l 1560 -2 l 1577 97 l 1676 97 l 1688 165 l 1589 165 l 1647 500 l 1523 500 l 1153 172 l 1140 97 z m 229 387 l 716 387 l 728 460 l 536 460 l 610 888 l 540 888 l 343 840 l 342 768 l 516 806 l 456 460 l 242 460 z m 663 12 l 719 -37 l 1427 824 l 1372 874 z m 1240 165 l 1561 449 l 1512 165 z "},"½":{"ha":1840,"x_min":0,"x_max":0,"o":"m 242 460 l 229 387 l 716 387 l 728 460 l 536 460 l 610 888 l 540 888 l 343 840 l 342 768 l 516 806 l 456 460 z m 663 12 l 719 -37 l 1427 824 l 1372 874 z m 1212 -2 l 1733 -2 l 1745 69 l 1310 69 l 1313 87 b 1508 208 1322 126 1353 165 l 1605 234 b 1788 396 1746 273 1788 319 b 1574 515 1788 474 1716 515 b 1317 458 1478 515 1379 485 l 1344 388 b 1569 442 1416 417 1509 442 b 1695 385 1654 442 1695 426 b 1581 302 1695 353 1674 328 l 1472 272 b 1224 73 1289 221 1238 156 z "},"¾":{"ha":1810,"x_min":0,"x_max":0,"o":"m 219 491 l 192 422 b 441 373 249 395 333 373 b 748 559 618 373 748 420 b 633 663 748 612 709 657 b 749 796 713 678 749 723 b 565 903 749 880 656 903 b 306 856 446 903 354 875 l 323 790 b 553 834 383 813 482 834 b 658 781 632 834 658 811 b 493 685 658 725 626 685 l 369 685 l 358 617 l 484 617 b 659 547 597 617 659 605 b 452 445 659 484 584 445 b 219 491 346 445 280 467 z m 668 12 l 725 -37 l 1433 824 l 1377 874 z m 1206 97 l 1566 97 l 1549 -2 l 1626 -2 l 1643 97 l 1742 97 l 1753 165 l 1655 165 l 1713 500 l 1589 500 l 1219 172 z m 1306 165 l 1627 449 l 1578 165 z "},"_":{"ha":999,"x_min":0,"x_max":0,"o":"m 28 -81 l 14 -160 l 930 -160 l 944 -81 z "},"-":{"ha":583,"x_min":0,"x_max":0,"o":"m 112 404 l 97 318 l 597 318 l 612 404 z "},"–":{"ha":917,"x_min":0,"x_max":0,"o":"m 112 404 l 98 325 l 931 325 l 945 404 z "},"—":{"ha":1355,"x_min":0,"x_max":0,"o":"m 112 404 l 99 332 l 1371 332 l 1383 404 z "},"(":{"ha":432,"x_min":0,"x_max":0,"o":"m 303 -104 l 382 -59 b 285 342 336 36 285 169 b 543 906 285 569 360 733 l 486 974 b 188 335 308 826 188 640 b 303 -104 188 147 247 -3 z "},")":{"ha":435,"x_min":0,"x_max":0,"o":"m 310 528 b 52 -35 310 303 235 137 l 109 -104 b 408 535 288 45 408 226 b 292 974 408 722 349 875 l 213 929 b 310 528 259 834 310 701 z "},"[":{"ha":497,"x_min":0,"x_max":0,"o":"m 324 994 l 138 -85 l 406 -85 l 419 -8 l 244 -8 l 403 917 l 579 917 l 592 994 z "},"]":{"ha":497,"x_min":0,"x_max":0,"o":"m 330 -85 l 516 994 l 248 994 l 235 917 l 410 917 l 251 -8 l 75 -8 l 62 -85 z "},"{":{"ha":569,"x_min":0,"x_max":0,"o":"m 475 -85 l 488 -8 b 326 58 358 -8 326 11 b 330 91 326 68 328 79 l 369 316 b 372 347 371 327 372 337 b 302 440 372 399 343 430 b 408 541 349 456 397 475 l 447 768 b 643 891 463 867 501 891 l 656 968 b 359 795 454 968 385 946 l 321 573 b 185 481 312 521 258 492 l 171 399 b 276 328 240 396 276 379 b 274 305 276 322 276 313 l 238 93 b 231 35 234 72 231 53 b 475 -85 231 -46 282 -85 z "},"}":{"ha":569,"x_min":0,"x_max":0,"o":"m 76 -8 l 63 -85 b 360 88 265 -85 334 -63 l 398 310 b 534 401 407 362 461 391 l 548 484 b 442 554 478 487 442 503 b 444 578 442 561 443 569 l 482 790 b 488 847 485 810 488 830 b 244 968 488 928 437 968 l 231 891 b 392 824 360 891 392 872 b 389 792 392 815 391 803 l 350 567 b 347 536 348 556 347 546 b 417 442 347 483 376 453 b 311 342 370 427 322 408 l 272 115 b 76 -8 256 16 217 -8 z "},"#":{"ha":1050,"x_min":0,"x_max":0,"o":"m 200 0 l 277 -16 l 382 248 l 672 248 l 575 0 l 652 -16 l 757 248 l 994 248 l 1006 322 l 786 322 l 893 591 l 1114 591 l 1126 665 l 923 665 l 1015 896 l 932 910 l 835 665 l 548 665 l 640 896 l 557 910 l 460 665 l 227 665 l 215 591 l 432 591 l 326 322 l 108 322 l 95 248 l 297 248 z m 411 322 l 518 591 l 807 591 l 701 322 z "},"%":{"ha":1074,"x_min":0,"x_max":0,"o":"m 415 877 b 169 642 305 877 169 812 b 362 465 169 521 247 465 b 613 697 483 465 613 534 b 415 877 613 821 523 877 z m 167 45 l 227 -8 l 1059 831 l 1002 886 z m 256 650 b 408 801 256 751 327 801 b 526 688 478 801 526 767 b 369 540 526 586 453 540 b 256 650 294 540 256 576 z m 609 161 b 801 -16 609 40 687 -16 b 1053 216 923 -16 1053 53 b 854 397 1053 340 963 397 b 609 161 744 397 609 331 z m 695 169 b 848 321 695 270 767 321 b 966 208 918 321 966 287 b 808 59 966 106 893 59 b 695 169 733 59 695 95 z "},"‰":{"ha":1587,"x_min":0,"x_max":0,"o":"m 415 877 b 169 642 305 877 169 812 b 362 465 169 521 247 465 b 613 697 483 465 613 534 b 415 877 613 821 523 877 z m 167 45 l 227 -8 l 1059 831 l 1002 886 z m 256 650 b 408 801 256 751 327 801 b 526 688 478 801 526 767 b 369 540 526 586 453 540 b 256 650 294 540 256 576 z m 609 161 b 801 -16 609 40 687 -16 b 1053 216 923 -16 1053 53 b 854 397 1053 340 963 397 b 609 161 744 397 609 331 z m 695 169 b 848 321 695 270 767 321 b 966 208 918 321 966 287 b 808 59 966 106 893 59 b 695 169 733 59 695 95 z m 1122 161 b 1315 -16 1122 40 1200 -16 b 1566 216 1436 -16 1566 53 b 1367 397 1566 340 1476 397 b 1122 161 1258 397 1122 331 z m 1208 169 b 1361 321 1208 270 1280 321 b 1479 208 1431 321 1479 287 b 1322 59 1479 106 1406 59 b 1208 169 1247 59 1208 95 z "},"'":{"ha":266,"x_min":0,"x_max":0,"o":"m 242 896 l 206 587 l 265 587 l 334 896 z "},"\"":{"ha":458,"x_min":0,"x_max":0,"o":"m 434 896 l 399 587 l 457 587 l 526 896 z m 206 587 l 265 587 l 334 896 l 242 896 z "},"‘":{"ha":277,"x_min":0,"x_max":0,"o":"m 364 872 l 319 891 l 231 715 l 207 576 l 312 576 l 335 711 l 301 711 z "},"’":{"ha":277,"x_min":0,"x_max":0,"o":"m 187 600 l 231 581 l 319 758 l 344 897 l 239 897 l 215 761 l 250 761 z "},"“":{"ha":473,"x_min":0,"x_max":0,"o":"m 560 872 l 515 891 l 427 715 l 403 576 l 508 576 l 531 711 l 497 711 z m 207 576 l 312 576 l 335 711 l 301 711 l 364 872 l 319 891 l 231 715 z "},"”":{"ha":473,"x_min":0,"x_max":0,"o":"m 181 600 l 226 581 l 314 758 l 338 897 l 233 897 l 210 761 l 244 761 z m 377 600 l 422 581 l 510 758 l 534 897 l 429 897 l 406 761 l 440 761 z "},"‚":{"ha":260,"x_min":0,"x_max":0,"o":"m 35 -176 l 80 -194 l 168 -18 l 192 121 l 88 121 l 64 -15 l 99 -15 z "},"„":{"ha":456,"x_min":0,"x_max":0,"o":"m 35 -176 l 80 -194 l 168 -18 l 192 121 l 88 121 l 64 -15 l 99 -15 z m 231 -176 l 276 -194 l 364 -18 l 388 121 l 283 121 l 260 -15 l 294 -15 z "},"‹":{"ha":452,"x_min":0,"x_max":0,"o":"m 114 338 l 338 -16 l 416 38 l 226 330 l 519 632 l 454 697 z "},"›":{"ha":452,"x_min":0,"x_max":0,"o":"m 472 343 l 248 697 l 170 643 l 360 351 l 67 49 l 132 -16 z "},"«":{"ha":735,"x_min":0,"x_max":0,"o":"m 114 338 l 331 -16 l 413 37 l 228 335 l 515 633 l 446 697 z m 393 338 l 617 -16 l 699 38 l 507 335 l 802 633 l 732 697 z "},"»":{"ha":735,"x_min":0,"x_max":0,"o":"m 755 343 l 538 697 l 456 644 l 641 347 l 354 48 l 423 -16 z m 67 48 l 137 -16 l 476 343 l 251 697 l 170 644 l 362 347 z "},"*":{"ha":477,"x_min":0,"x_max":0,"o":"m 322 648 l 298 508 l 365 508 l 390 649 l 506 574 l 540 632 l 428 704 l 570 778 l 542 837 l 410 768 l 434 903 l 367 903 l 342 760 l 221 838 l 185 780 l 297 708 l 151 631 l 179 573 z "},"†":{"ha":539,"x_min":0,"x_max":0,"o":"m 325 597 l 217 -90 l 291 -90 l 421 597 l 573 597 l 586 674 l 434 674 l 478 931 l 382 931 l 338 674 l 186 674 l 173 597 z "},"‡":{"ha":540,"x_min":0,"x_max":0,"o":"m 279 306 l 217 -90 l 291 -90 l 366 306 l 522 306 l 536 383 l 381 383 l 421 597 l 573 597 l 586 674 l 434 674 l 478 931 l 382 931 l 338 674 l 186 674 l 173 597 l 325 597 l 292 383 l 136 383 l 122 306 z "},".":{"ha":282,"x_min":0,"x_max":0,"o":"m 107 137 l 83 0 l 199 0 l 222 137 z "},",":{"ha":278,"x_min":0,"x_max":0,"o":"m 95 -197 l 188 -4 l 212 135 l 107 135 l 84 0 l 118 0 l 49 -177 z "},":":{"ha":282,"x_min":0,"x_max":0,"o":"m 200 674 l 176 538 l 292 538 l 315 674 z m 83 0 l 199 0 l 222 137 l 107 137 z "},";":{"ha":278,"x_min":0,"x_max":0,"o":"m 190 674 l 167 538 l 282 538 l 306 674 z m 49 -177 l 95 -197 l 188 -4 l 212 135 l 107 135 l 84 0 l 118 0 z "},"…":{"ha":846,"x_min":0,"x_max":0,"o":"m 671 137 l 647 0 l 763 0 l 786 137 z m 83 0 l 199 0 l 222 137 l 107 137 z m 365 0 l 481 0 l 504 137 l 389 137 z "},"!":{"ha":457,"x_min":0,"x_max":0,"o":"m 285 603 l 235 236 l 303 236 l 380 601 l 431 896 l 335 896 z m 174 0 l 283 0 l 306 133 l 197 133 z "},"¡":{"ha":457,"x_min":0,"x_max":0,"o":"m 306 169 l 356 536 l 288 536 l 210 172 l 159 -124 l 255 -124 z m 284 639 l 394 639 l 417 772 l 307 772 z "},"?":{"ha":744,"x_min":0,"x_max":0,"o":"m 284 133 l 261 0 l 371 0 l 394 133 z m 178 834 l 204 747 b 533 823 315 795 429 823 b 706 703 619 823 706 795 b 481 508 706 610 588 569 b 315 311 403 463 331 407 l 304 249 l 407 249 l 415 298 b 528 426 425 354 471 392 b 810 714 646 494 810 548 b 539 910 810 849 714 910 b 178 834 385 910 267 872 z "},"¿":{"ha":744,"x_min":0,"x_max":0,"o":"m 608 639 l 631 772 l 522 772 l 499 639 z m 82 58 b 353 -138 82 -76 178 -138 b 714 -62 508 -138 625 -100 l 688 25 b 360 -51 578 -23 463 -51 b 186 69 274 -51 186 -23 b 411 265 186 163 304 203 b 578 461 490 310 562 365 l 588 523 l 485 523 l 477 474 b 364 347 467 418 422 381 b 82 58 247 278 82 224 z "},"/":{"ha":538,"x_min":0,"x_max":0,"o":"m -12 -189 l 71 -222 l 692 1012 l 608 1046 z "},"\\":{"ha":532,"x_min":0,"x_max":0,"o":"m 196 1015 l 392 -222 l 476 -205 l 281 1033 z "},"⁄":{"ha":347,"x_min":0,"x_max":0,"o":"m -137 12 l -80 -37 l 628 824 l 572 874 z "},"|":{"ha":417,"x_min":0,"x_max":0,"o":"m 349 1059 l 115 -297 l 199 -297 l 433 1059 z "},"¦":{"ha":417,"x_min":0,"x_max":0,"o":"m 221 315 l 115 -297 l 199 -297 l 304 315 z m 251 485 l 334 485 l 433 1059 l 349 1059 z "},"@":{"ha":1486,"x_min":0,"x_max":0,"o":"m 690 -194 b 1110 -131 903 -194 1027 -159 l 1086 -59 b 711 -117 1006 -84 889 -117 b 269 291 450 -117 269 -3 b 908 856 269 660 551 856 b 1365 472 1181 856 1365 741 b 1181 133 1365 235 1256 133 b 1120 183 1140 133 1120 151 b 1122 203 1120 190 1121 196 l 1149 373 b 1156 458 1153 404 1156 433 b 876 687 1156 626 1056 687 b 597 631 763 687 672 660 l 621 556 b 875 608 668 576 769 608 b 1067 436 1014 608 1067 558 b 918 442 1015 440 965 442 b 463 212 635 442 463 366 b 675 50 463 80 575 50 b 1034 165 822 50 949 106 b 1163 49 1035 99 1083 49 b 1453 492 1298 49 1453 166 b 914 935 1453 813 1216 935 b 178 274 537 935 178 742 b 690 -194 178 -62 401 -194 z m 563 218 b 946 371 563 304 663 371 b 1061 367 981 371 1019 369 l 1045 257 b 694 128 954 185 822 128 b 563 218 608 128 563 161 z "},"&":{"ha":1144,"x_min":0,"x_max":0,"o":"m 463 -16 b 845 112 609 -16 742 16 l 1009 -16 l 1067 56 b 904 181 1008 101 953 142 b 1026 488 958 256 1000 356 l 941 488 b 838 233 917 376 881 294 b 458 690 565 453 458 565 b 658 832 458 788 535 832 b 866 788 716 832 801 812 l 898 867 b 657 911 831 892 746 911 b 355 678 503 911 355 853 b 433 477 355 609 375 549 b 178 199 267 417 178 324 b 463 -16 178 20 334 -16 z m 283 205 b 489 415 283 308 362 369 b 778 165 554 349 647 269 b 480 72 689 88 581 72 b 283 205 358 72 283 103 z "},"§":{"ha":966,"x_min":0,"x_max":0,"o":"m 453 -190 b 842 72 685 -190 842 -119 b 791 197 842 131 823 170 b 927 400 872 238 927 296 b 384 688 927 704 384 472 b 638 831 384 783 488 831 b 903 783 750 831 828 810 l 944 860 b 650 911 881 885 771 911 b 290 674 467 911 290 855 b 363 536 290 603 319 562 b 205 342 275 503 205 442 b 752 57 205 50 752 279 b 463 -106 752 -42 673 -106 b 156 -40 308 -106 233 -78 l 115 -115 b 453 -190 167 -149 267 -190 z m 301 361 b 470 503 301 434 373 474 b 837 387 630 481 837 521 b 707 238 837 324 783 274 b 301 361 547 280 301 224 z "},"¶":{"ha":947,"x_min":0,"x_max":0,"o":"m 449 347 l 558 347 l 472 -158 l 571 -158 l 753 896 l 544 896 b 167 570 301 896 167 770 b 449 347 167 418 276 347 z m 654 -158 l 753 -158 l 935 896 l 836 896 z "},"·":{"ha":282,"x_min":0,"x_max":0,"o":"m 186 554 l 163 417 l 278 417 l 301 554 z "},"•":{"ha":342,"x_min":0,"x_max":0,"o":"m 174 522 l 140 328 l 315 328 l 349 522 z "},"+":{"ha":844,"x_min":0,"x_max":0,"o":"m 440 370 l 391 90 l 483 90 l 532 370 l 838 370 l 853 456 l 547 456 l 590 709 l 498 709 l 455 456 l 148 456 l 133 370 z "},"−":{"ha":844,"x_min":0,"x_max":0,"o":"m 148 456 l 133 370 l 838 370 l 853 456 z "},"±":{"ha":844,"x_min":0,"x_max":0,"o":"m 463 502 l 415 228 l 508 228 l 555 502 l 861 502 l 876 588 l 570 588 l 611 827 l 519 827 l 478 588 l 171 588 l 156 502 z m 78 49 l 783 49 l 798 135 l 93 135 z "},"÷":{"ha":844,"x_min":0,"x_max":0,"o":"m 406 241 l 384 118 l 499 118 l 521 241 z m 133 370 l 838 370 l 853 456 l 148 456 z m 463 572 l 578 572 l 599 695 l 484 695 z "},"×":{"ha":726,"x_min":0,"x_max":0,"o":"m 106 160 l 163 100 l 431 326 l 624 103 l 694 164 l 502 381 l 756 591 l 701 658 l 449 442 l 267 651 l 201 594 l 376 390 z "},"=":{"ha":844,"x_min":0,"x_max":0,"o":"m 131 352 l 115 266 l 820 266 l 835 352 z m 152 478 l 857 478 l 872 565 l 167 565 z "},"<":{"ha":910,"x_min":0,"x_max":0,"o":"m 175 331 l 764 31 l 810 110 l 253 391 l 920 659 l 889 743 l 198 460 z "},">":{"ha":905,"x_min":0,"x_max":0,"o":"m 880 446 l 291 746 l 245 666 l 802 385 l 135 117 l 166 33 l 857 316 z "},"≤":{"ha":928,"x_min":0,"x_max":0,"o":"m 197 459 l 830 198 l 877 283 l 291 522 l 951 742 l 928 828 l 219 589 z m 118 0 l 823 0 l 838 86 l 133 86 z "},"≥":{"ha":939,"x_min":0,"x_max":0,"o":"m 168 289 l 198 200 l 913 451 l 935 581 l 308 831 l 269 747 l 842 521 z m 130 0 l 835 0 l 849 86 l 144 86 z "},"≈":{"ha":847,"x_min":0,"x_max":0,"o":"m 483 263 b 617 227 526 245 566 227 b 828 297 703 227 756 252 l 789 361 b 634 316 741 331 695 316 b 507 349 585 316 547 332 b 348 388 461 367 414 388 b 125 321 262 388 176 348 l 149 248 b 332 299 199 274 265 299 b 483 263 394 299 440 281 z m 165 549 l 188 476 b 372 527 238 502 305 527 b 510 497 428 527 470 513 b 657 456 558 477 601 456 b 868 526 742 456 796 481 l 828 590 b 674 544 781 560 735 544 b 538 581 622 544 581 563 b 388 616 495 599 449 616 b 165 549 301 616 216 576 z "},"≠":{"ha":844,"x_min":0,"x_max":0,"o":"m 286 110 l 369 84 l 462 266 l 820 266 l 834 345 l 502 345 l 573 485 l 858 485 l 872 565 l 613 565 l 693 723 l 609 750 l 515 565 l 167 565 l 153 485 l 476 485 l 405 345 l 129 345 l 115 266 l 365 266 z "},"¬":{"ha":847,"x_min":0,"x_max":0,"o":"m 754 325 l 728 175 l 808 175 l 847 404 l 140 404 l 126 325 z "},"←":{"ha":1105,"x_min":0,"x_max":0,"o":"m 194 417 l 409 157 l 481 217 l 319 411 l 1089 411 l 1104 497 l 335 497 l 563 689 l 511 751 l 206 491 z "},"↑":{"ha":802,"x_min":0,"x_max":0,"o":"m 491 769 l 358 0 l 444 0 l 577 769 l 735 574 l 808 637 l 593 897 l 519 897 l 214 636 l 264 575 z "},"→":{"ha":1106,"x_min":0,"x_max":0,"o":"m 699 217 l 750 157 l 1056 417 l 1068 491 l 853 751 l 780 689 l 942 497 l 173 497 l 158 411 l 927 411 z "},"↓":{"ha":802,"x_min":0,"x_max":0,"o":"m 149 260 l 364 0 l 438 0 l 743 260 l 692 322 l 467 128 l 599 897 l 513 897 l 381 127 l 220 322 z "},"∂":{"ha":1091,"x_min":0,"x_max":0,"o":"m 522 -16 b 1051 524 822 -16 1051 149 b 672 910 1051 761 928 910 b 310 817 516 910 388 863 l 342 740 b 667 825 444 792 557 825 b 953 514 850 825 953 719 b 950 456 953 495 951 476 b 611 576 881 522 774 576 b 192 235 451 576 192 502 b 522 -16 192 57 344 -16 z m 294 246 b 606 490 294 418 436 490 b 935 366 758 490 849 442 b 528 70 880 150 701 70 b 294 246 387 70 294 130 z "},"∆":{"ha":1157,"x_min":0,"x_max":0,"o":"m 52 0 l 1105 0 l 814 982 l 678 982 z m 216 87 l 736 906 l 973 87 z "},"∏":{"ha":1073,"x_min":0,"x_max":0,"o":"m 322 896 l 138 -170 l 237 -170 l 406 813 l 947 813 l 778 -170 l 877 -170 l 1061 896 z "},"∑":{"ha":969,"x_min":0,"x_max":0,"o":"m 115 -42 l 94 -165 l 871 -165 l 885 -80 l 209 -80 l 728 374 l 363 811 l 1033 811 l 1047 896 l 278 896 l 257 783 l 603 378 z "},"µ":{"ha":1024,"x_min":0,"x_max":0,"o":"m 269 674 l 106 -274 l 201 -274 l 233 -90 b 251 40 242 -42 249 5 b 447 -16 297 -1 365 -16 b 801 87 599 -16 740 51 l 797 0 l 872 0 l 988 674 l 894 674 l 808 176 b 463 70 776 156 615 70 b 293 220 346 70 293 106 b 305 334 293 252 297 290 l 364 674 z "},"∕":{"ha":495,"x_min":0,"x_max":0,"o":"m -12 -189 l 71 -222 l 692 1012 l 608 1046 z "},"√":{"ha":928,"x_min":0,"x_max":0,"o":"m 253 476 l 380 0 l 510 0 l 1099 943 l 1026 988 l 456 69 l 332 560 l 138 560 l 123 476 z "},"∞":{"ha":1315,"x_min":0,"x_max":0,"o":"m 1181 367 b 981 165 1181 251 1105 165 b 814 259 906 165 853 203 l 765 331 l 857 426 b 1040 513 924 494 985 513 b 1181 367 1135 513 1181 452 z m 161 301 b 388 88 161 169 244 88 b 647 217 480 88 554 131 l 702 269 l 740 215 b 981 88 805 124 875 88 b 1271 376 1151 88 1271 200 b 1046 590 1271 514 1182 590 b 801 473 951 590 876 552 l 723 391 l 662 480 b 453 590 608 561 551 590 b 161 301 303 590 161 485 z m 252 311 b 447 513 252 424 328 513 b 588 428 499 513 539 495 l 658 330 l 581 260 b 399 165 523 208 469 165 b 252 311 301 165 252 226 z "},"∫":{"ha":792,"x_min":0,"x_max":0,"o":"m -19 -183 l -49 -262 b 133 -290 -12 -274 54 -290 b 432 -80 294 -290 403 -248 l 579 774 b 783 915 599 890 655 915 b 938 892 852 915 884 906 l 964 972 b 783 999 933 981 856 999 b 486 789 624 999 515 957 l 339 -65 b 139 -206 319 -181 263 -206 b -19 -183 69 -206 33 -199 z "},"$":{"ha":912,"x_min":0,"x_max":0,"o":"m 320 52 l 296 -90 l 369 -90 l 392 44 b 449 43 410 44 429 43 b 520 45 474 43 497 44 l 497 -90 l 570 -90 l 594 53 b 865 322 767 81 865 163 b 668 483 865 431 776 467 l 715 755 b 858 717 771 745 819 730 l 886 785 b 727 826 849 800 793 816 l 754 987 l 681 987 l 656 835 b 584 838 633 837 608 838 b 528 835 565 838 547 837 l 554 987 l 481 987 l 453 827 b 213 597 313 802 213 731 b 385 429 213 499 275 450 l 333 129 b 151 188 256 142 194 167 l 124 113 b 320 52 161 92 226 65 z m 297 603 b 441 751 297 677 344 728 l 399 511 b 297 603 339 524 297 549 z m 405 120 l 456 419 b 504 416 472 418 488 417 b 583 410 531 414 557 413 l 533 121 b 463 118 510 119 487 118 b 405 120 442 118 424 119 z m 470 501 l 515 764 b 590 767 538 766 563 767 b 644 765 608 767 626 766 l 597 490 b 527 496 574 492 550 494 b 470 501 508 497 489 499 z m 608 132 l 654 403 b 784 303 730 392 784 367 b 608 132 784 210 716 156 z "},"¢":{"ha":867,"x_min":0,"x_max":0,"o":"m 157 309 b 349 53 157 176 226 90 l 324 -90 l 399 -90 l 422 39 b 503 34 447 35 474 34 b 533 35 513 34 523 34 l 511 -90 l 586 -90 l 609 42 b 816 110 675 53 741 76 l 784 185 b 624 129 737 163 683 142 l 706 599 b 831 561 744 591 786 578 l 867 640 b 720 685 825 658 779 675 l 743 819 l 668 819 l 647 694 b 600 695 632 694 617 695 b 535 692 578 695 556 694 l 556 819 l 481 819 l 457 678 b 157 309 285 634 157 507 z m 260 317 b 441 585 260 449 330 542 l 365 142 b 260 317 295 171 260 227 z m 436 123 l 519 606 b 595 611 544 609 569 611 b 632 610 608 611 619 610 l 547 118 b 517 117 538 117 528 117 b 436 123 488 117 460 119 z "},"£":{"ha":860,"x_min":0,"x_max":0,"o":"m 149 88 l 135 0 l 780 0 l 793 83 l 258 83 l 367 401 l 780 401 l 794 484 l 395 484 l 455 659 b 685 824 506 808 608 824 b 906 782 767 824 847 806 l 941 861 b 693 910 877 888 795 910 b 357 667 554 910 432 874 l 292 484 l 167 484 l 153 401 l 261 401 z "},"¤":{"ha":875,"x_min":0,"x_max":0,"o":"m 197 123 l 305 218 b 471 169 347 186 404 169 b 644 213 536 169 596 185 l 727 120 l 785 167 l 706 261 b 779 450 752 309 779 374 b 738 582 779 502 765 547 l 844 673 l 799 728 l 684 629 b 537 666 645 653 595 666 b 385 632 483 666 431 654 l 310 723 l 251 676 l 320 590 b 228 385 265 541 228 471 b 259 269 228 340 240 301 l 149 178 z m 313 390 b 532 596 314 513 408 596 b 697 447 642 596 697 528 b 480 240 697 335 617 240 b 313 390 375 240 313 290 z "},"¥":{"ha":1094,"x_min":0,"x_max":0,"o":"m 307 456 l 293 374 l 484 374 l 542 279 l 276 279 l 263 197 l 548 197 l 514 0 l 610 0 l 644 197 l 928 197 l 942 279 l 680 279 l 767 374 l 958 374 l 972 456 l 843 456 l 1203 847 l 1134 907 l 613 343 l 272 908 l 190 858 l 434 456 z "},"€":{"ha":1061,"x_min":0,"x_max":0,"o":"m 636 -16 b 992 85 758 -16 877 18 l 947 166 b 644 77 869 119 771 77 b 360 311 479 77 378 144 l 781 311 l 796 394 l 357 394 b 369 488 358 427 363 458 l 812 488 l 826 571 l 394 571 b 772 817 458 725 597 817 b 1034 753 862 817 948 794 l 1078 837 b 778 910 992 883 912 910 b 285 571 593 910 367 813 l 161 571 l 147 488 l 263 488 b 253 394 258 458 254 427 l 131 394 l 116 311 l 255 311 b 636 -16 275 64 443 -16 z "},"ƒ":{"ha":806,"x_min":0,"x_max":0,"o":"m -121 -179 l -149 -260 b 40 -290 -105 -276 -33 -290 b 360 -58 229 -290 322 -201 l 477 381 l 808 381 l 821 458 l 497 458 l 551 670 b 760 811 580 787 637 811 b 934 792 828 811 874 805 l 959 872 b 772 896 913 883 852 896 b 458 685 606 896 502 859 l 401 458 l 193 458 l 180 381 l 381 381 l 268 -48 b 46 -206 240 -155 164 -206 b -121 -179 -13 -206 -69 -196 z "},"₱":{"ha":1159,"x_min":0,"x_max":0,"o":"m 236 0 l 333 0 l 376 250 l 674 250 b 1088 438 888 250 1027 308 l 1214 438 l 1228 520 l 1115 520 b 1123 622 1120 553 1123 592 l 1246 622 l 1260 704 l 1113 704 b 797 896 1078 829 966 896 l 391 896 l 358 704 l 212 704 l 198 622 l 344 622 l 326 520 l 180 520 l 166 438 l 312 438 z m 392 340 l 409 438 l 968 438 b 689 340 919 377 831 340 z m 424 520 l 441 622 l 1019 622 b 1009 520 1019 590 1015 551 z m 456 704 l 473 806 l 778 806 b 999 704 899 806 969 770 z "},"^":{"ha":715,"x_min":0,"x_max":0,"o":"m 147 550 l 216 490 l 508 836 l 674 494 l 754 531 l 573 896 l 447 896 z "},"~":{"ha":768,"x_min":0,"x_max":0,"o":"m 326 367 b 429 319 371 367 399 343 b 543 275 458 297 491 275 b 764 378 637 275 706 318 l 718 436 b 556 362 666 390 624 362 b 481 400 526 362 506 380 b 333 454 450 426 410 454 b 133 368 247 454 172 399 l 170 303 b 326 367 212 332 266 367 z "},"´":{"ha":539,"x_min":0,"x_max":0,"o":"m 288 1065 l 322 992 l 631 1134 l 592 1217 z "},"`":{"ha":505,"x_min":0,"x_max":0,"o":"m 300 1135 l 533 996 l 584 1065 l 359 1215 z "},"˝":{"ha":776,"x_min":0,"x_max":0,"o":"m 357 1043 l 415 989 l 665 1200 l 603 1265 z m 633 1056 l 685 996 l 950 1188 l 895 1258 z "},"ˆ":{"ha":675,"x_min":0,"x_max":0,"o":"m 285 1049 l 342 988 l 544 1150 l 688 988 l 751 1039 l 592 1208 l 499 1208 z "},"ˇ":{"ha":663,"x_min":0,"x_max":0,"o":"m 308 1182 l 465 1018 l 558 1018 l 763 1182 l 708 1237 l 514 1076 l 373 1235 z "},"˘":{"ha":628,"x_min":0,"x_max":0,"o":"m 388 1203 l 310 1196 b 309 1164 309 1185 309 1174 b 486 997 309 1068 357 997 b 731 1196 634 997 704 1092 l 649 1204 b 493 1072 610 1097 558 1072 b 388 1201 429 1072 388 1097 z "},"˜":{"ha":710,"x_min":0,"x_max":0,"o":"m 525 1049 b 626 1010 552 1030 583 1010 b 802 1135 692 1010 752 1046 l 738 1168 b 636 1088 705 1113 675 1088 b 566 1121 611 1088 590 1103 b 453 1168 537 1143 503 1168 b 286 1053 391 1168 328 1133 l 347 1017 b 446 1089 372 1052 403 1089 b 525 1049 475 1089 499 1069 z "},"¯":{"ha":618,"x_min":0,"x_max":0,"o":"m 296 1110 l 282 1031 l 692 1031 l 706 1110 z "},"¨":{"ha":552,"x_min":0,"x_max":0,"o":"m 299 1127 l 280 1018 l 388 1018 l 407 1127 z m 515 1018 l 624 1018 l 642 1127 l 534 1127 z "},"˙":{"ha":317,"x_min":0,"x_max":0,"o":"m 299 1127 l 280 1018 l 388 1018 l 407 1127 z "},"˚":{"ha":526,"x_min":0,"x_max":0,"o":"m 439 980 b 615 1128 535 980 615 1044 b 472 1252 614 1206 562 1252 b 297 1102 371 1252 297 1183 b 439 980 297 1031 343 980 z m 367 1109 b 469 1194 367 1152 408 1194 b 543 1124 522 1194 543 1161 b 442 1039 543 1079 501 1039 b 367 1109 388 1039 367 1073 z "},"¸":{"ha":528,"x_min":0,"x_max":0,"o":"m 93 -204 l 70 -270 b 197 -290 97 -280 142 -290 b 399 -123 328 -290 399 -229 b 231 65 399 -40 358 24 l 183 13 b 320 -123 293 -18 320 -76 b 209 -222 320 -181 281 -222 b 93 -204 159 -222 119 -212 z "},"˛":{"ha":611,"x_min":0,"x_max":0,"o":"m 404 19 l 353 68 b 117 -167 180 -2 117 -74 b 260 -290 117 -243 170 -290 b 395 -266 311 -290 354 -280 l 377 -201 b 268 -222 344 -213 319 -222 b 199 -156 223 -222 199 -203 b 404 19 199 -99 245 -40 z "},"©":{"ha":1202,"x_min":0,"x_max":0,"o":"m 678 -17 b 1167 444 978 -17 1167 175 b 678 903 1167 712 972 903 b 189 444 381 903 189 712 b 678 -17 189 175 374 -17 z m 274 444 b 678 826 274 660 422 826 b 1082 444 933 826 1082 660 b 678 61 1082 227 933 61 b 274 444 422 61 274 227 z m 398 439 b 678 188 398 278 513 188 b 891 253 744 188 833 213 l 852 322 b 683 269 808 295 744 269 b 491 436 569 269 491 324 b 683 613 491 554 572 613 b 845 572 723 613 785 601 l 876 647 b 679 692 828 671 763 692 b 398 439 527 692 398 606 z "},"®":{"ha":728,"x_min":0,"x_max":0,"o":"m 497 626 l 414 626 l 414 698 l 497 698 b 547 660 531 698 547 685 b 497 626 547 636 535 626 z m 158 620 b 470 329 158 446 279 329 b 785 620 661 329 785 446 b 470 910 785 794 658 910 b 158 620 283 910 158 794 z m 224 620 b 470 851 224 750 313 851 b 717 620 628 851 717 750 b 470 390 717 490 628 390 b 224 620 313 390 224 490 z m 347 498 l 414 498 l 414 576 l 494 576 b 513 577 501 576 508 576 l 551 490 l 608 510 l 573 589 b 613 660 599 602 613 626 b 498 747 613 721 574 747 l 347 747 z "},"™":{"ha":1439,"x_min":0,"x_max":0,"o":"m 788 896 l 788 447 l 864 447 l 864 815 l 1047 490 l 1143 490 l 1322 822 l 1322 447 l 1398 447 l 1398 896 l 1285 896 l 1097 549 l 906 896 z m 190 831 l 410 831 l 410 447 l 489 447 l 489 831 l 687 831 l 687 896 l 190 896 z "},"°":{"ha":614,"x_min":0,"x_max":0,"o":"m 426 464 b 667 688 572 464 667 553 b 426 910 667 822 569 910 b 185 688 282 910 185 822 b 426 464 185 553 279 464 z m 272 688 b 426 835 272 767 326 835 b 579 688 526 835 579 767 b 426 540 579 608 526 540 b 272 688 326 540 272 608 z "},"◊":{"ha":933,"x_min":0,"x_max":0,"o":"m 194 440 l 402 0 l 535 0 l 890 435 l 685 896 l 554 896 z m 300 430 l 614 835 l 790 447 l 474 59 z "},"₹":{"ha":1007,"x_min":0,"x_max":0,"o":"m 603 300 l 695 -16 l 790 18 l 699 324 b 894 553 808 363 875 439 l 1016 553 l 1031 635 l 900 635 b 799 813 898 724 853 792 l 1061 813 l 1076 897 l 330 897 l 315 813 l 560 813 b 802 635 720 813 799 742 l 285 635 l 270 553 l 794 553 b 483 376 767 444 674 376 l 240 376 l 226 292 l 481 292 b 603 300 526 292 566 294 z "},"ﬀ":{"ha":1242,"x_min":0,"x_max":0,"o":"m 303 594 l 201 0 l 295 0 l 398 594 l 879 594 l 776 0 l 871 0 l 974 594 l 1331 594 l 1345 674 l 988 674 l 1004 774 b 1228 913 1024 889 1088 913 b 1405 893 1301 913 1344 906 l 1431 973 b 1236 999 1431 973 1328 999 b 913 789 1054 999 941 957 l 893 674 l 412 674 l 426 760 b 639 899 445 875 507 899 b 801 879 706 899 747 892 l 827 959 b 647 985 827 959 732 985 b 335 775 474 985 362 943 l 317 674 l 182 674 l 168 594 z "},"ﬁ":{"ha":972,"x_min":0,"x_max":0,"o":"m 303 594 l 201 0 l 295 0 l 398 594 l 842 594 l 739 0 l 833 0 l 950 674 l 412 674 l 428 774 b 678 913 448 890 520 913 b 886 893 765 913 821 906 l 910 973 b 685 999 861 986 774 999 b 337 789 487 999 367 957 l 317 674 l 182 674 l 168 594 z "},"ﬂ":{"ha":1025,"x_min":0,"x_max":0,"o":"m 303 594 l 201 0 l 295 0 l 398 594 l 718 594 l 732 674 l 412 674 l 428 774 b 635 913 447 889 506 913 b 796 893 701 913 741 906 l 822 973 b 643 999 791 981 710 999 b 337 789 472 999 363 957 l 317 674 l 182 674 l 168 594 z m 792 0 l 886 0 l 1056 982 l 961 982 z "},"ﬃ":{"ha":1548,"x_min":0,"x_max":0,"o":"m 303 594 l 201 0 l 295 0 l 398 594 l 879 594 l 776 0 l 871 0 l 974 594 l 1417 594 l 1315 0 l 1409 0 l 1526 674 l 988 674 l 1004 774 b 1253 913 1024 890 1096 913 b 1462 893 1341 913 1397 906 l 1485 973 b 1261 999 1437 986 1350 999 b 913 789 1063 999 943 957 l 893 674 l 412 674 l 426 760 b 639 899 445 875 507 899 b 801 879 706 899 747 892 l 827 959 b 647 985 827 959 732 985 b 335 775 474 985 362 943 l 317 674 l 182 674 l 168 594 z "},"ﬄ":{"ha":1601,"x_min":0,"x_max":0,"o":"m 303 594 l 201 0 l 295 0 l 398 594 l 878 594 l 776 0 l 871 0 l 974 594 l 1294 594 l 1308 674 l 988 674 l 1004 774 b 1211 913 1023 889 1083 913 b 1372 893 1277 913 1317 906 l 1397 973 b 1219 999 1367 981 1285 999 b 913 789 1049 999 940 957 l 892 674 l 412 674 l 426 760 b 639 899 445 875 507 899 b 801 879 706 899 747 892 l 827 959 b 647 985 827 959 732 985 b 335 775 474 985 362 943 l 317 674 l 182 674 l 168 594 z m 1367 0 l 1462 0 l 1631 982 l 1537 982 z "},"₀":{"ha":764,"x_min":0,"x_max":0,"o":"m 347 -217 b 671 90 513 -217 671 -123 b 431 313 671 242 562 313 b 109 3 281 313 109 217 b 347 -217 109 -144 210 -217 z m 197 11 b 426 239 197 154 298 239 b 582 81 513 239 582 185 b 360 -144 582 -64 470 -144 b 197 11 262 -144 197 -92 z "},"₁":{"ha":764,"x_min":0,"x_max":0,"o":"m 140 -130 l 127 -203 l 614 -203 l 626 -130 l 434 -130 l 508 298 l 438 298 l 241 250 l 240 178 l 414 215 l 354 -130 z "},"₂":{"ha":764,"x_min":0,"x_max":0,"o":"m 472 101 l 363 70 b 115 -128 180 19 129 -46 l 103 -203 l 624 -203 l 636 -132 l 201 -132 l 204 -115 b 399 6 213 -75 244 -36 l 496 33 b 679 194 637 72 679 117 b 465 313 679 272 607 313 b 208 257 369 313 270 283 l 235 186 b 460 240 307 216 400 240 b 586 184 545 240 586 225 b 472 101 586 152 565 127 z "},"₃":{"ha":764,"x_min":0,"x_max":0,"o":"m 117 -99 l 90 -169 b 339 -217 147 -195 231 -217 b 646 -31 516 -217 646 -170 b 531 73 646 22 607 67 b 647 206 611 88 647 133 b 463 313 647 290 554 313 b 204 266 344 313 252 285 l 221 199 b 451 244 281 222 380 244 b 556 190 530 244 556 221 b 391 94 556 135 524 94 l 267 94 l 256 27 l 382 27 b 557 -43 495 27 557 15 b 350 -145 557 -106 482 -145 b 117 -99 244 -145 178 -123 z "},"₄":{"ha":764,"x_min":0,"x_max":0,"o":"m 485 -105 l 469 -203 l 546 -203 l 563 -105 l 661 -105 l 673 -37 l 574 -37 l 632 299 l 508 299 l 139 -30 l 126 -105 z m 226 -37 l 547 247 l 497 -37 z "},"₅":{"ha":764,"x_min":0,"x_max":0,"o":"m 144 -90 l 113 -160 b 368 -217 165 -187 248 -217 b 659 -25 533 -217 659 -154 b 452 115 659 79 572 115 b 276 80 381 115 327 101 l 318 228 l 633 228 l 645 299 l 263 299 l 189 43 l 252 4 b 435 47 303 26 366 47 b 574 -35 547 47 574 15 b 379 -146 574 -110 481 -146 b 144 -90 285 -146 204 -120 z "},"₆":{"ha":764,"x_min":0,"x_max":0,"o":"m 387 -217 b 674 -16 564 -217 674 -135 b 481 131 674 92 585 131 b 222 28 377 131 280 89 b 226 59 223 39 224 49 b 490 242 249 174 347 242 b 640 213 544 242 594 228 l 669 281 b 495 313 631 297 578 313 b 138 -6 269 313 138 186 b 387 -217 138 -142 236 -217 z m 226 -41 b 471 65 280 16 388 65 b 590 -24 539 65 590 32 b 397 -149 590 -116 486 -149 b 226 -41 315 -149 246 -119 z "},"₇":{"ha":764,"x_min":0,"x_max":0,"o":"m 233 -164 l 294 -217 l 698 207 l 713 299 l 205 299 l 193 228 l 613 228 z "},"₈":{"ha":764,"x_min":0,"x_max":0,"o":"m 297 61 b 122 -95 192 35 122 -9 b 360 -217 122 -187 226 -217 b 647 -64 513 -217 647 -170 b 519 58 647 6 592 48 b 659 188 596 71 659 109 b 452 313 659 267 577 313 b 197 160 311 313 197 260 b 297 61 197 101 242 74 z m 212 -79 b 402 23 212 -16 300 23 b 559 -65 491 23 559 -9 b 372 -151 559 -114 488 -151 b 212 -79 246 -151 212 -123 z m 285 165 b 441 251 285 217 341 251 b 570 180 528 251 570 225 b 413 88 570 122 486 89 b 285 165 351 88 285 116 z "},"₉":{"ha":764,"x_min":0,"x_max":0,"o":"m 338 -217 b 688 99 573 -217 688 -100 b 442 313 688 235 591 313 b 172 108 332 313 172 261 b 368 -37 172 -10 277 -37 b 601 40 471 -37 551 -1 b 598 24 600 35 599 30 b 349 -147 573 -87 483 -147 b 170 -113 286 -147 217 -133 l 145 -183 b 338 -217 193 -203 265 -217 z m 258 115 b 442 247 258 193 328 247 b 603 113 523 247 594 210 b 374 33 550 67 467 33 b 258 115 308 33 258 56 z "},"₍":{"ha":382,"x_min":0,"x_max":0,"o":"m 351 283 l 300 342 b 133 6 223 281 133 183 b 202 -246 133 -114 172 -195 l 274 -206 b 219 8 250 -160 219 -82 b 351 283 219 140 278 218 z "},"₎":{"ha":382,"x_min":0,"x_max":0,"o":"m 66 -222 l 117 -281 b 283 55 194 -219 283 -122 b 215 307 283 175 244 256 l 142 267 b 197 53 167 222 197 143 b 66 -222 197 -78 138 -157 z "},"¹":{"ha":764,"x_min":0,"x_max":0,"o":"m 263 582 l 250 508 l 737 508 l 749 582 l 557 582 l 631 1010 l 560 1010 l 364 962 l 363 890 l 537 927 l 477 582 z "},"²":{"ha":764,"x_min":0,"x_max":0,"o":"m 595 813 l 486 782 b 238 583 303 731 252 666 l 226 508 l 747 508 l 759 580 l 324 580 l 327 597 b 522 718 335 637 367 676 l 619 744 b 802 906 760 783 802 829 b 588 1025 802 984 730 1025 b 331 969 492 1025 393 995 l 358 898 b 583 952 430 928 523 952 b 709 896 668 952 709 937 b 595 813 709 864 688 839 z "},"³":{"ha":764,"x_min":0,"x_max":0,"o":"m 240 613 l 213 543 b 462 494 270 517 353 494 b 769 681 639 494 769 542 b 654 785 769 733 730 778 b 769 917 734 799 769 844 b 585 1025 769 1001 677 1025 b 327 978 467 1025 375 997 l 344 911 b 574 956 403 934 503 956 b 679 902 653 956 679 933 b 514 806 679 847 647 806 l 390 806 l 378 739 l 505 739 b 680 669 618 739 680 726 b 473 567 680 606 605 567 b 240 613 367 567 301 589 z "},"⁰":{"ha":764,"x_min":0,"x_max":0,"o":"m 470 494 b 794 802 635 494 794 589 b 553 1025 794 954 685 1025 b 232 715 404 1025 232 929 b 470 494 232 568 333 494 z m 319 723 b 549 951 319 866 421 951 b 705 793 636 951 705 897 b 483 567 705 648 593 567 b 319 723 385 567 319 619 z "},"⁴":{"ha":764,"x_min":0,"x_max":0,"o":"m 608 607 l 592 508 l 669 508 l 685 607 l 784 607 l 796 675 l 697 675 l 755 1010 l 631 1010 l 262 682 l 249 607 z m 349 675 l 669 959 l 620 675 z "},"⁵":{"ha":764,"x_min":0,"x_max":0,"o":"m 267 622 l 236 552 b 491 494 288 525 371 494 b 782 687 656 494 782 558 b 575 827 782 791 694 827 b 399 792 504 827 450 813 l 441 940 l 756 940 l 768 1010 l 386 1010 l 312 755 l 375 716 b 558 759 426 738 489 759 b 697 676 670 759 697 726 b 502 566 697 601 603 566 b 267 622 408 566 327 592 z "},"⁶":{"ha":764,"x_min":0,"x_max":0,"o":"m 510 494 b 797 696 687 494 797 577 b 604 842 797 804 708 842 b 345 740 500 842 403 801 b 349 771 346 751 347 761 b 613 954 372 886 469 954 b 763 925 667 954 717 940 l 792 993 b 618 1025 754 1009 701 1025 b 261 706 392 1025 261 898 b 510 494 261 569 359 494 z m 349 671 b 594 776 403 728 510 776 b 713 688 662 776 713 744 b 519 563 713 596 609 563 b 349 671 438 563 369 593 z "},"⁷":{"ha":764,"x_min":0,"x_max":0,"o":"m 356 548 l 417 494 l 821 919 l 836 1010 l 328 1010 l 316 940 l 736 940 z "},"⁸":{"ha":764,"x_min":0,"x_max":0,"o":"m 419 773 b 244 617 315 747 244 703 b 483 494 244 524 349 494 b 769 648 636 494 769 542 b 642 769 769 717 715 760 b 782 899 719 783 782 821 b 575 1025 782 978 700 1025 b 320 872 434 1025 320 972 b 419 773 320 813 365 785 z m 335 633 b 525 735 335 696 423 735 b 682 647 614 735 682 703 b 494 560 682 598 610 560 b 335 633 369 560 335 589 z m 408 876 b 564 963 408 928 464 963 b 693 892 651 963 693 937 b 536 800 693 834 609 801 b 408 876 474 800 408 828 z "},"⁹":{"ha":764,"x_min":0,"x_max":0,"o":"m 461 494 b 810 811 696 494 810 612 b 565 1025 810 947 714 1025 b 295 820 455 1025 295 973 b 491 675 295 701 400 675 b 724 752 594 675 674 711 b 721 736 723 747 722 742 b 472 565 696 625 606 565 b 293 599 409 565 340 579 l 268 529 b 461 494 316 509 388 494 z m 381 827 b 565 958 381 905 451 958 b 726 824 646 958 717 922 b 497 745 673 778 590 745 b 381 827 431 745 381 767 z "},"⁽":{"ha":382,"x_min":0,"x_max":0,"o":"m 453 873 l 402 932 b 235 597 325 871 235 773 b 304 344 235 476 274 395 l 376 385 b 322 598 352 430 322 508 b 453 873 322 730 381 808 z "},"⁾":{"ha":382,"x_min":0,"x_max":0,"o":"m 168 369 l 219 310 b 385 645 296 371 385 469 b 317 897 385 765 347 847 l 244 857 b 299 644 269 812 299 733 b 168 369 299 512 240 433 z "},"⁺":{"ha":382,"x_min":0,"x_max":0,"o":"m 258 600 l 237 475 l 314 475 l 335 600 l 451 600 l 464 672 l 347 672 l 367 788 l 290 788 l 270 672 l 151 672 l 139 600 z "},"⁻":{"ha":382,"x_min":0,"x_max":0,"o":"m 151 674 l 138 598 l 451 598 l 464 674 z "},"⁼":{"ha":382,"x_min":0,"x_max":0,"o":"m 138 596 l 125 520 l 438 520 l 451 596 z m 151 673 l 464 673 l 477 749 l 165 749 z "},"ẞ":{"ha":2110,"x_min":0,"x_max":0,"o":"m 1565 -16 b 2053 308 1872 -16 2053 77 b 1691 510 2053 479 1866 497 b 1389 636 1535 522 1389 529 b 1730 823 1389 758 1499 823 b 2045 766 1860 823 1966 791 l 2077 849 b 1724 910 2004 878 1875 910 b 1288 628 1484 910 1288 831 b 1649 419 1288 452 1463 431 b 1956 288 1806 408 1956 402 b 1581 76 1956 139 1792 76 b 1216 156 1419 76 1293 119 l 1184 65 b 1565 -16 1246 32 1372 -16 z m 129 65 b 510 -16 191 32 317 -16 b 998 308 817 -16 998 77 b 636 510 998 479 811 497 b 334 636 481 522 334 529 b 675 823 334 758 444 823 b 990 766 806 823 911 791 l 1022 849 b 669 910 949 878 820 910 b 233 628 429 910 233 831 b 594 419 233 452 408 431 b 901 288 751 408 901 402 b 526 76 901 139 738 76 b 161 156 365 76 238 119 z "}," ":{"ha":694,"x_min":0,"x_max":0,"o":""}," ":{"ha":486,"x_min":0,"x_max":0,"o":""}," ":{"ha":1389,"x_min":0,"x_max":0,"o":""}}}
